<?xml version="1.0" encoding="utf-8"?>
<!-- Generator: Adobe Illustrator 24.2.0, SVG Export Plug-In . SVG Version: 6.00 Build 0)  -->
<svg version="1.1" id="Layer_1" xmlns="http://www.w3.org/2000/svg" xmlns:xlink="http://www.w3.org/1999/xlink" x="0px" y="0px"
	 viewBox="0 0 440.4 426.8" style="enable-background:new 0 0 440.4 426.8;" xml:space="preserve">
<style type="text/css">
	.st0{fill:#2978A0;}
	.st1{fill:#FFFFFF;}
</style>
<rect class="st0" width="440.4" height="426.8"/>
<path class="st1" d="M313,367.2c-17,0-33.5,0-50.4,0c0.2,0.8,0.2,1.3,0.4,1.7c9.3,18.6-0.7,40-19,46.6c-17,6.2-36.8-3.5-42.7-20.6
	c-3.7-10.8-2.3-20.9,4.2-30.3c1-1.4,1.4-2.5-0.4-3.5c-10.5-5.7-15.6-15.3-18.5-26.3c-6-23.1-11.7-46.3-17.4-69.5
	c-6.2-24.7-12.3-49.5-18.4-74.3c-5.7-23-11.4-45.9-17.1-68.9c-5.1-20.4-10.1-41-15.5-61.5c-1.6-6.3-3.7-12.5-6.4-18.4
	c-3.3-7.4-9.5-11.6-17.6-11.8c-14.7-0.5-29.4-0.4-44.1-0.5c-1.9,0-2.6,0.9-3,2.7c-1.8,9.6-10,15.3-19.7,13.6
	C18.9,44.8,12.9,36,14.1,27c1-7.2,8.1-13.9,15.4-13.9c21-0.1,42.1-0.3,63.1,0.2c17.7,0.4,31.6,10.7,37.4,28
	c3.5,10.4,5.9,21.2,8.7,31.9c3.2,12.5,6.3,25.1,9.4,37.7c3,12.2,6,24.4,9,36.5c3.1,12.6,6.2,25.1,9.3,37.7c3,12.2,6,24.4,9,36.5
	c3.1,12.4,6.1,24.8,9.1,37.1c1.7,7,3.7,14,5.2,21.1c0.6,2.6,1.8,2.9,4,2.9c11.3-0.1,22.7,0,34,0c37.1,0,74.2,0,111.3,0.1
	c3,0,4.6-0.6,5.8-3.8c10.4-28,21-55.9,31.6-83.8c8.4-22.3,16.9-44.6,25.4-66.8c1.9-4.9,6.5-7,10.8-5.3c4.8,2,6.6,6.6,4.7,11.7
	c-14.6,38.6-29.2,77.2-43.8,115.9c-5.3,13.9-10.5,27.8-15.8,41.8c-2.1,5.4-4.7,7.3-10.7,7.3c-49.1,0-98.1,0-147.2,0
	c-1,0-2.2-0.3-3,0.1c-0.7,0.3-1.8,1.5-1.7,2c3.4,12.1,6.6,24.2,10.5,36.1c2.9,8.7,10.5,11.4,18.9,12.1c2.2,0.2,4.5,0.2,6.7,0.2
	c42,0,84,0,126,0c5.3,0,8.2,1.7,9.8,5.8c0.2,0.5,0.5,1,0.4,1.5c-0.8,3.8,1.5,6.2,3.4,9.1c12.2,18.8,1.4,44.6-20.4,50.1
	c-18.3,4.7-37.9-7.8-41.3-26.7c-1.3-6.9-0.4-13.6,2.7-20C312.4,369,312.6,368.3,313,367.2z M342.7,367c-9.6,0-16.9,7.2-16.9,16.7
	c0,9.4,7.2,16.6,16.6,16.7c9.6,0,16.9-7.2,16.9-16.7C359.4,374.3,352.1,367.1,342.7,367z M233,400.4c9.5,0,17-7.5,16.8-16.8
	c-0.1-9.3-7.5-16.5-16.9-16.5s-16.8,7.3-16.9,16.5C216,392.9,223.5,400.4,233,400.4z"/>
<path class="st1" d="M320.9,139.3c-1.4,0-2.8,0-4.2,0c-36.2,0-72.4,0-108.5,0c-5.8,0-9.4-3.1-9.5-8.1c-0.1-4.6,3-8.3,7.7-8.7
	c1.1-0.1,2.2-0.1,3.4-0.1c35.8,0,71.5,0,107.3,0c1.3,0,2.6-0.1,4.5-0.2c-1.1-1.2-1.8-2-2.5-2.7c-8.1-8.2-16.3-16.3-24.4-24.5
	c-3.2-3.2-3.7-7.2-1.7-10.6s5.9-5,9.8-3.8c1.6,0.5,3.1,1.5,4.3,2.7c15,14.9,29.9,30,44.9,44.9c2,2,2.1,3.3,0,5.4
	c-14.9,14.8-29.7,29.8-44.6,44.6c-3.2,3.2-7.3,4-10.6,2.4c-3.2-1.5-5.4-5.2-4.6-8.8c0.5-2,1.7-4.2,3.2-5.7
	c7.7-8,15.7-15.8,23.5-23.7c0.8-0.8,1.5-1.6,2.3-2.4C321,139.8,321,139.6,320.9,139.3z"/>
</svg>
