<?xml version="1.0" encoding="utf-8"?>
<!-- Generator: Adobe Illustrator 24.2.0, SVG Export Plug-In . SVG Version: 6.00 Build 0)  -->
<svg version="1.1" id="Layer_1" xmlns="http://www.w3.org/2000/svg" xmlns:xlink="http://www.w3.org/1999/xlink" x="0px" y="0px"
	 viewBox="0 0 276 276" style="enable-background:new 0 0 276 276;" xml:space="preserve">
<style type="text/css">
	.st0{fill:#2978A0;}
	.st1{fill:#FFFFFF;}
</style>
<rect class="st0" width="276" height="276"/>
<path class="st1" d="M269.5,139.5c0,24.4,0,48.8,0,73.2c0,17.3-6.1,31.9-19.1,43.5c-10.6,9.4-23.3,13.7-37.3,13.8
	c-49.4,0.1-98.7,0.2-148.1-0.1c-21.5-0.1-38.1-9.7-49.1-28.3c-5.2-8.7-7.2-18.4-7.2-28.4c-0.1-49.1-0.1-98.2,0-147.3
	C8.7,44,18.2,27.3,37,16.2c8.6-5.2,18.1-7.2,28.1-7.2c49.3,0,98.6-0.2,147.8,0c21.7,0.1,38.3,9.7,49.3,28.4c5.3,8.9,7.1,18.7,7.1,29
	C269.5,90.9,269.5,115.2,269.5,139.5z M139.2,17.1c-24.2,0-48.3,0-72.5,0c-7.1,0-14.2,0.8-20.8,3.7c-19,8.6-29,23.6-29.1,44.3
	c-0.3,49.6-0.1,99.1-0.1,148.7c0,8.4,1.8,16.4,6,23.8c9.7,16.6,24.4,24.3,43.3,24.4c48.7,0.1,97.3,0.1,146,0c6.9,0,13.7-0.8,20-3.7
	c19.2-8.6,29.1-23.7,29.3-44.5c0.3-49.5,0.2-98.9,0.1-148.4c0-14.8-5.5-27.3-16.9-37c-9.5-8.1-20.7-11.2-32.9-11.2
	C187.5,17.1,163.3,17.1,139.2,17.1z"/>
<path class="st1" d="M138.8,249.9c-22.6,0-45.2,0.3-67.8-0.1c-17.9-0.3-34.2-13.2-40-30.3c-1.8-5.2-2.4-10.5-2.4-15.9
	c0-42.7,0-85.4,0-128.1c0-18.1,7.9-31.7,23.4-40.9c7.2-4.2,15-5.7,23.3-5.7c42.5,0,85.1,0,127.6,0c1.7,0,3.4,0.1,5.1,0.2
	c1.2,0.1,2.1,0.7,2.2,2c0,1.3-1,1.8-2.2,1.9c-1.4,0-2.9-0.1-4.3-0.1c-43.1,0-86.1,0-129.2,0C55,32.9,39,45.3,33.9,64.2
	c-0.9,3.5-1.4,7.2-1.4,11c0,42.9,0,85.8,0,128.7c0,18.3,10.3,33.2,27.4,39.7c4.5,1.7,9.2,2.5,14,2.5c43.5,0,87,0.1,130.6,0
	c19-0.1,35.1-12.8,40-31.4c1-3.9,1.4-8,1.4-12.1c-0.1-20.9,0-41.8,0-62.7c0-0.9,0-1.8,0.1-2.7c0-1,0.8-1.4,1.6-1.5
	c1-0.1,1.8,0.2,2,1.3c0.1,0.9,0.2,1.8,0.2,2.7c0,21.2,0,42.4,0,63.5c0,18.2-7.8,31.9-23.5,41.1c-7.4,4.3-15.6,5.7-24.1,5.7
	c-21.1-0.1-42.2,0-63.3,0C138.8,250,138.8,250,138.8,249.9z"/>
<path class="st1" d="M178.5,72.3c6.1,0,12.3,0,18.4,0c6.2,0,9.3,3.1,9.4,9.3c0.1,12.3,0.1,24.7,0,37c0,4.8-1.9,7.4-5.8,8.7
	c-4.4,1.5-9.6-1.6-9.9-6.3c-0.3-5.8-0.2-11.7-0.2-17.6c0-0.9,0.5-2-0.5-2.5c-1.2-0.6-1.7,0.7-2.3,1.3
	c-28.6,28.5-57.1,57.1-85.6,85.6c-0.1,0.1-0.3,0.2-0.4,0.4c-0.5,0.7-1.7,1.1-1.2,2.2c0.4,0.9,1.5,0.4,2.2,0.4c5.7,0,11.4,0,17,0.1
	c3.9,0.1,6.6,2.5,7.6,6.4c0.7,2.9-1,6.5-3.9,8.2c-1.5,0.9-3.2,1.1-4.9,1.1c-12.4,0-24.9,0-37.3,0c-5.9,0-9.2-3.3-9.2-9.2
	c-0.1-12.3,0-24.5,0-36.8c0-5,1.8-7.7,5.8-9c4.5-1.5,9.7,1.7,10,6.5c0.3,5.6,0.1,11.2,0.2,16.7c0,1.1-0.7,2.6,0.7,3.1
	c1.1,0.4,1.8-1,2.5-1.7c22.9-22.9,45.8-45.7,68.6-68.6c5.5-5.5,11.1-11,16.6-16.6c0.7-0.7,2.2-1.5,1.8-2.5c-0.5-1.3-2.1-0.6-3.1-0.6
	c-5.4-0.1-10.8,0-16.2-0.1c-3.8-0.1-6.4-2.4-7.5-6.2c-0.8-2.9,0.8-6.5,3.7-8.3c1.7-1,3.5-1.2,5.5-1.2
	C166.3,72.3,172.4,72.3,178.5,72.3z M202.2,100.2c0-6,0-12.1,0-18.1c0-4.4-1.3-5.6-5.6-5.7c-12,0-24,0-35.9,0c-0.6,0-1.3,0-1.9,0.1
	c-1.9,0.2-3.2,1.1-3.6,3.1c-0.4,2.1,0.6,3.4,2.4,4.3c1,0.5,2.1,0.4,3.2,0.4c7.5,0,15,0,22.4,0c1.1,0,2.2,0.1,2.7,1.4
	c0.5,1.1-0.4,1.9-1,2.6c-0.5,0.5-1,1-1.5,1.6c-31.1,31.1-62.2,62.2-93.3,93.3c-1.4,1.4-2.5,4.1-4.8,3.1c-2.5-1-1.3-3.8-1.3-5.8
	c-0.1-6.8,0-13.5-0.1-20.3c0-2-0.7-3.8-2.9-4.4c-1.8-0.5-3.4,0.1-4.4,1.7c-0.6,1-0.5,2.1-0.5,3.2c0,12.3,0,24.5,0,36.8
	c0,3.9,1.4,5.3,5.4,5.3c12.1,0,24.1,0,36.2,0c0.7,0,1.5,0,2.2-0.1c1.7-0.4,3-1.3,3.2-3.1c0.3-1.8-0.4-3.1-2-4
	c-1.1-0.6-2.2-0.6-3.4-0.6c-7.2,0-14.4,0-21.6,0c-1.3,0-2.8,0.3-3.6-1.2c-0.8-1.7,0.7-2.5,1.5-3.4c31.9-32,63.9-63.9,95.8-95.8
	c0.9-0.9,1.7-2.2,3.1-1.6c1.8,0.6,1.5,2.3,1.5,3.7c0,7.4,0,14.8,0,22.2c0,3.1,1.5,4.9,3.8,4.9c2.6,0.1,4-1.6,4-4.9
	C202.2,112.4,202.2,106.3,202.2,100.2z"/>
<path class="st1" d="M245.6,117.8c0-2.4,0-4.8,0-7.3c0-1.3,0.4-2.4,1.8-2.5c1.5-0.1,2.1,0.9,2.1,2.2c0,5,0,10,0,15.1
	c0,1.3-0.7,2.4-2.1,2.3c-1.3-0.1-1.8-1.2-1.8-2.5C245.6,122.7,245.6,120.2,245.6,117.8z"/>
<path class="st1" d="M245.6,94c0-1.3,0-2.5,0-3.8c0-1.2,0.8-1.9,1.8-2c1.1-0.2,1.9,0.7,2,1.8c0.3,2.8,0.3,5.6,0,8.3
	c-0.1,1.1-0.9,1.6-1.9,1.6c-1.1,0-1.9-0.6-1.9-1.9C245.6,96.7,245.6,95.4,245.6,94L245.6,94z"/>
</svg>
