<?xml version="1.0" encoding="utf-8"?>
<!-- Generator: Adobe Illustrator 24.2.0, SVG Export Plug-In . SVG Version: 6.00 Build 0)  -->
<svg version="1.1" id="Layer_1" xmlns="http://www.w3.org/2000/svg" xmlns:xlink="http://www.w3.org/1999/xlink" x="0px" y="0px"
	 viewBox="0 0 321 426.8" style="enable-background:new 0 0 321 426.8;" xml:space="preserve">
<style type="text/css">
	.st0{fill:#2978A0;}
	.st1{fill:#FFFFFF;}
</style>
<rect class="st0" width="321" height="426.8"/>
<path class="st1" d="M16.6,194.4c0-51.7,0.1-103.3-0.1-155c0-9.6,3.4-17.2,11.1-22.9c3.9-2.8,8.2-4.5,13.1-4.6c1.3,0,2.7-0.1,4-0.1
	c79,0,158.1,0,237.1,0c5.7,0,10.9,1,15.2,5c3.8,3.6,6.2,7.9,6.4,13.2c0,1.2,0.1,2.3,0.1,3.5c0,89.7,0,179.5,0,269.2
	c0,4.3,0,8.7-2.7,12.2c-2.2,2.8-4.8,5.4-7.7,7.4c-1.8,1.3-2.5,2.4-2.5,4.4c0,9.7,0,19.5,0,29.2c0,7.8-2.9,14.1-9.7,18.3
	c-3.6,2.2-7.5,2.9-11.7,2.9c-47.7,0-95.3,0-143,0c-0.8,0-1.6,0.1-2.4,0c-2.1-0.2-2.7,0.7-2.7,2.8c0.1,9.6,0.1,19.1,0,28.7
	c0,4.9-3.2,8.1-7.6,7.4c-1.3-0.2-2.6-1-3.7-1.8c-6.3-4.6-12.5-9.2-18.7-14c-1.9-1.5-3.3-1.7-5.3,0c-6.2,4.9-12.6,9.4-18.9,14.2
	c-2.2,1.7-4.6,2.5-7.1,1.2c-2.8-1.3-4-3.7-4-6.9c0.1-9.6,0-19.1,0.1-28.7c0-2.2-0.6-2.9-2.9-2.9c-5.5-0.1-11-0.1-16.4-1
	c-9.8-1.5-18.9-11.8-19.6-21.8c-0.2-2.3-0.2-4.6-0.2-6.9C16.6,296.4,16.6,245.4,16.6,194.4z M29.5,175.4c0,45.2,0,90.3,0,135.5
	c0,0.9,0,1.8,0,2.7c0,1.6,0.6,2.1,2.2,1.3c4.4-2.3,9.1-3,14.1-3c78.6,0.1,157.1,0,235.7,0.1c7.3,0,9-3.7,9-8.9
	c0-89.7,0-179.5,0-269.2c0-1.1,0-2.3-0.2-3.4c-0.6-3.2-2.5-5-5.7-5.4c-1.3-0.2-2.7-0.1-4-0.1c-78.2,0-156.4,0-234.6,0
	c-1.2,0-2.5,0-3.7,0.1c-4.1,0.2-7.5,1.8-10,5.1c-2.4,3.1-2.7,6.6-2.7,10.3C29.5,85.4,29.5,130.4,29.5,175.4z M158.7,325
	c-37.5,0-74.9,0-112.4,0c-1.2,0-2.5,0-3.7,0.1c-6.2,0.4-12.3,5.7-12.8,11.8c-0.4,5.4-0.4,10.8,0.2,16.2c0.6,6.5,6,10.9,12.6,11
	c3.5,0.1,7.1-0.1,10.6,0.1c2.1,0.1,2.6-0.7,2.5-2.6c-0.1-5.3-0.1-10.6,0-15.9c0-4.9,2.4-7.4,7.3-7.4c16.8-0.1,33.7-0.1,50.5,0
	c5,0,7.5,2.7,7.5,7.6c0,5,0.1,10.1,0,15.1c-0.1,2.6,0.7,3.3,3.3,3.3c48.4-0.1,96.7-0.1,145.1-0.1c5.7,0,8.2-2.5,8.2-8.3
	c0-8.9,0-17.7,0-26.6c0-4.2,0-4.2-4.3-4.2C235.1,325,196.9,325,158.7,325z M107.5,396.2c0.2-1.2,0.3-1.6,0.3-2c0-13.6,0-27.3,0-40.9
	c0-2.1-0.9-2.5-2.8-2.5c-11,0.1-21.9,0.1-32.9,0c-2.8,0-3.4,0.9-3.4,3.5c0.1,12.8,0,25.7,0.1,38.5c0,0.9,0.1,1.8,0.3,3.3
	c1.3-0.8,2.1-1.3,2.8-1.9c3.8-2.9,7.6-5.7,11.4-8.6c3.7-2.8,5.9-2.8,9.6-0.2c2.7,1.9,5.2,3.9,7.9,5.9
	C102.9,392.9,105,394.4,107.5,396.2z"/>
<path class="st1" d="M82,220.6c6.1,0,12.2-0.1,18.3,0c5,0.1,7.5,2.5,7.5,7.5c0,12.4,0,24.8,0,37.2c0,4.6-2.6,7.4-7.2,7.4
	c-12.6,0.1-25.2,0.1-37.7,0c-4.6,0-7.2-2.8-7.2-7.4c0-12.5,0-25,0-37.5c0-4.7,2.5-7.2,7.2-7.3C69.2,220.5,75.6,220.6,82,220.6z
	 M94.7,246.8c0-3.5,0-7.1,0-10.6c0-1.7-0.5-2.6-2.4-2.6c-7.1,0.1-14.2,0-21.2,0c-1.6,0-2.3,0.6-2.3,2.2c0,7.3,0,14.5,0,21.8
	c0,1.5,0.5,2.1,2,2.1c7.3,0,14.5,0,21.8,0c1.6,0,2.2-0.7,2.1-2.2C94.7,253.9,94.7,250.4,94.7,246.8z"/>
<path class="st1" d="M81.7,64.1c6.2,0,12.4,0,18.6,0c5.1,0,7.5,2.5,7.5,7.7c0,12.2,0,24.4,0,36.6c0,5.2-2.6,7.8-7.8,7.8
	c-12.2,0-24.4,0-36.6,0c-5,0-7.7-2.7-7.7-7.7c0-12.3,0-24.6,0-36.9c0-5,2.5-7.5,7.4-7.5C69.3,64,75.5,64.1,81.7,64.1z M94.7,90.1
	c0-3.5-0.1-6.9,0-10.4c0-1.9-0.5-2.8-2.6-2.8c-7,0.1-14,0.1-21,0c-1.7,0-2.4,0.6-2.4,2.3c0,7.2,0,14.3,0,21.5c0,1.6,0.5,2.2,2.1,2.2
	c7.2-0.1,14.3-0.1,21.5,0c1.8,0,2.3-0.7,2.3-2.4C94.6,97.2,94.7,93.7,94.7,90.1z"/>
<path class="st1" d="M81.8,194.3c-6.2,0-12.4,0-18.6,0c-5.2,0-7.5-2.5-7.5-7.7c0-12.2,0-24.4,0-36.6c0-5.2,2.6-7.8,7.9-7.8
	c12.1,0,24.2,0,36.4,0c5.4,0,7.9,2.6,7.9,8c0,12.1,0,24.2,0,36.4c0,5.3-2.4,7.8-7.7,7.8C94,194.4,87.9,194.3,81.8,194.3z
	 M81.8,155.3c-3.5,0-7.1,0.1-10.6,0c-1.7,0-2.4,0.5-2.4,2.2c0.1,7.2,0.1,14.3,0,21.5c0,1.8,0.8,2.5,2.6,2.5c6.9-0.1,13.8-0.1,20.7,0
	c2,0,2.7-0.8,2.6-2.7c-0.1-7.1-0.1-14.2,0-21.3c0-1.7-0.6-2.4-2.3-2.3C88.9,155.3,85.3,155.3,81.8,155.3z"/>
<path class="st1" d="M251.2,272.8c-1.9,0-3.9,0.1-5.8,0c-4.3-0.2-7.1-2.9-7-6.8c0.1-3.8,2.8-6.3,7-6.3c4,0,8-0.1,12,0
	c3.9,0.1,6.8,2.8,6.9,6.3c0.1,3.6-2.7,6.6-6.7,6.8C255.5,272.8,253.4,272.7,251.2,272.8L251.2,272.8z"/>
<path class="st1" d="M251.2,240.1c-2.1,0-4.2,0.1-6.4,0c-3.7-0.2-6.3-2.8-6.4-6.4c-0.1-3.7,2.6-6.5,6.4-6.6c4.3-0.1,8.7-0.1,13,0
	c3.7,0.1,6.6,3.1,6.5,6.7c-0.1,3.4-2.9,6.2-6.5,6.4C255.6,240.2,253.4,240.1,251.2,240.1z"/>
<path class="st1" d="M251.2,207.5c-2,0-4.1,0.1-6.1,0c-3.8-0.1-6.4-2.5-6.6-6.1c-0.2-3.5,2.3-6.6,5.9-6.8c4.7-0.3,9.4-0.3,14,0
	c3.7,0.2,6.1,3.4,5.9,6.9c-0.2,3.3-3,5.9-6.5,6.1C255.6,207.5,253.4,207.5,251.2,207.5z"/>
<path class="st1" d="M251.2,174.7c-2.2,0-4.4,0.1-6.6,0c-3.4-0.2-5.8-2.5-6.1-5.8c-0.3-3.2,1.5-6.4,4.8-6.6c5.3-0.4,10.8-0.5,16.1,0
	c3.4,0.3,5.3,3.5,5,6.7s-3,5.7-6.5,5.8C255.6,174.8,253.4,174.8,251.2,174.7C251.2,174.8,251.2,174.8,251.2,174.7z"/>
<path class="st1" d="M251.5,64.1c2.3,0,4.6-0.1,6.9,0c3.2,0.2,5.7,2.7,5.9,5.8c0.2,3.2-1.7,6.3-4.8,6.6c-5.4,0.4-10.9,0.4-16.4,0
	c-3-0.2-4.9-3.3-4.7-6.4s2.4-5.5,5.4-5.9c0.3,0,0.5-0.1,0.8-0.1C246.9,64.1,249.2,64.1,251.5,64.1L251.5,64.1z"/>
<path class="st1" d="M251.1,142.1c-2.3,0-4.6,0.1-6.9,0c-3.5-0.2-5.8-2.9-5.8-6.4c0-3.3,2.2-6.1,5.6-6.2c4.8-0.2,9.7-0.3,14.6,0
	c3.5,0.2,5.8,3,5.7,6.4c-0.1,3.3-2.6,6-6.1,6.2C255.9,142.2,253.5,142.1,251.1,142.1L251.1,142.1z"/>
<path class="st1" d="M251.1,109.4c-2.4,0-4.8,0.2-7.2,0c-3.3-0.3-5.4-2.8-5.5-6c-0.1-3.3,2-6.2,5.4-6.4c5-0.3,10.1-0.3,15.1,0
	c3.3,0.2,5.5,3.1,5.4,6.4c-0.1,3.1-2.4,5.6-5.6,6.1c-0.4,0-0.7,0.1-1.1,0.1c-2.2,0-4.4,0-6.6,0C251.1,109.5,251.1,109.4,251.1,109.4
	z"/>
</svg>
