<?xml version="1.0" encoding="utf-8"?>
<!-- Generator: Adobe Illustrator 24.2.0, SVG Export Plug-In . SVG Version: 6.00 Build 0)  -->
<svg version="1.1" id="Слой_1" xmlns="http://www.w3.org/2000/svg" xmlns:xlink="http://www.w3.org/1999/xlink" x="0px" y="0px"
	 viewBox="0 0 1712.2 929.3" style="enable-background:new 0 0 1712.2 929.3;" xml:space="preserve">
<style type="text/css">
	.st0{fill:#9ED0E6;}
	.st1{opacity:0.4;}
	.st2{fill:#3A3A5B;}
	.st3{opacity:0.4;fill:#3A3A5B;}
	.st4{opacity:0.5;}
	.st5{fill:#2C2C2C;}
	.st6{fill:#4C4B73;}
	.st7{fill:#C8DBF4;}
	.st8{fill:#97AE93;}
	.st9{fill:#FF2948;}
	.st10{fill:#D2E3FC;}
	.st11{fill:#FCBA64;}
	.st12{fill:#B7D3F3;}
	.st13{fill:#C1D9F4;}
	.st14{fill:#E4EEF9;}
	.st15{fill:#95C0F4;}
	.st16{fill:#AFCDFB;}
	.st17{fill:#ECF1F9;}
	.st18{fill:#5DD782;}
	.st19{fill:#CED1EC;}
	.st20{fill:#FF4D67;}
	.st21{fill:#80B4FF;}
	.st22{fill:#F99746;}
	.st23{fill:#ED7D2B;}
	.st24{fill:#E98C94;}
	.st25{fill:#C65447;}
	.st26{fill:#FFCCBE;}
	.st27{fill:#163560;}
	.st28{fill:#B66479;}
	.st29{fill:#E59E4A;}
	.st30{fill:#9B5265;}
	.st31{fill:#FED677;}
	.st32{fill:#7398E6;}
	.st33{fill:#FFB27D;}
</style>
<g>
	<path class="st0" d="M112.1,908.3l518.2-2.4l138.1,0l45.8,0l138.4,0l632.2-0.2c0,0,144.6-164.6-9.9-320.9
		c-160.2-162.1-238-30.1-287.3-258.2C1163.7-247.6-61.4,86.6,259.9,575.2C375.6,751.2,32.2,657.7,112.1,908.3z"/>
	<g class="st1">
		<g>
			<g>
				<path class="st2" d="M1283.9,870c0,0,99.8-95,127.9-72.9C1439.7,819.2,1283.9,870,1283.9,870z"/>
			</g>
			<g>
				<path class="st2" d="M1276.7,888.3c0,0,185.8-83.2,229.7-39.2c44,44-51,38.5-86.1,33.6C1385.1,877.8,1276.7,888.3,1276.7,888.3z
					"/>
			</g>
			<g>
				<path class="st2" d="M1268.9,867.9c0,0,0.9-4.7,2.1-11.5c2.3-13.4,5.9-35,6.5-46.2c0.9-17,14.6-29.1,29.7-11.8
					c15,17.3-32.4,64.8-32.4,64.8L1268.9,867.9z"/>
			</g>
		</g>
	</g>
	<path class="st3" d="M1321.6,542.8c-13.6-35.6-74.1-17.9-74.1-17.9s-35.5,68.2-47.5,71c-12,2.8,18.9-64.2,18.9-64.2
		c-23.8,0.1-81.1,35.1-81.1,35.1s11.3,74.3-1,74c-12.3-0.3-6.7-66.3-6.7-66.3c-22.2,9.2-40.8,38-40.8,38
		c-22.3,46.1,38.1,72.3,38.1,72.3s3.4,25.8-9.6,57.1l0,0c0,0-3.1,5.8-5.8,15.5l6.2-0.6c0.3-1.7,0.7-3.4,1.2-5c0,0,0,0,0,0
		c0,0,0,0,0-0.1c0.3-1,0.8-2.4,1.4-4.2c0,0,0,0,0,0c0,0,0,0,0,0c1.5-3.9,2.5-6.8,3.1-8.9c0,0,0,0,0,0c4.5-12.3,11.2-28.3,16.4-32.1
		c0,0-0.8-0.9-1.6-2.7c0.5,0.9,1.1,1.8,1.6,2.7c13,21.8,66.7,20.2,95.8,11.1c29.1-9.1,15.3-16.2-2.1-28.2c-17.4-12-50.5-5-61-9.4
		c-10.4-4.3,3.5-11.1,23.5-11.6c20-0.5,31.9,18.3,64.2,18.2c32.3-0.2,50.6-62.8,50.6-62.8c-21.4,9.1-62.2,0.9-64.5-6.6
		c-2.3-7.5,56.4-12.6,65.4-15.8C1321,598.2,1335.1,578.3,1321.6,542.8z"/>
	<path class="st3" d="M345.6,856.9c-28-34.2,24.7-85,24.7-85s89.1,3.7,98.8-6.9c9.7-10.5-75.6-18-75.6-18
		c13.9-24,82.1-61.4,82.1-61.4s68.2,54.3,75.1,41.7c6.8-12.6-62.9-45-62.9-45c22-17,61.8-19.2,61.8-19.2
		c59.3,4.2,50.9,80.1,50.9,80.1s24.1,18.3,63.1,23.3h0c0,0,7.7,0.3,19,3.1l-4.2,5.9c-1.9-0.7-3.8-1.2-5.7-1.7c0,0,0,0,0,0
		c0,0-0.1,0-0.1,0c-1.2-0.2-2.9-0.6-5-1c0,0,0,0,0,0c0,0,0,0,0,0c-4.8-0.7-8.3-1.4-10.7-1.9c0,0,0,0,0,0c-15-2.5-35-5.1-41.8-2
		c0,0-0.5-1.3-1.8-3.2c0.6,1,1.2,2.1,1.8,3.2c14.4,25.6-18.1,78.8-44.1,102.8c-25.9,24.1-25.1,6.1-27.2-18.3
		c-2-24.4,24.1-53.8,25.8-66.8c1.7-13-13.2-2.9-25.2,16.9c-12,19.8,0.1,42.7-18.7,75.1c-18.8,32.4-92.4,14.7-92.4,14.7
		c21.5-16.3,36.8-62.2,30.6-68.8c-6.2-6.6-45.3,49.6-53.6,56.7C401.8,888.3,373.6,891.1,345.6,856.9z"/>
	<g class="st4">
		<g>
			<g>
				<path class="st5" d="M1028.2,906H317.8V292.1c0-27.1,22-49.2,49.2-49.2h620c22.8,0,41.3,18.5,41.3,41.3V906z M329,894.8h688
					V284.2c0-16.6-13.5-30.1-30.1-30.1H367c-20.9,0-38,17-38,38V894.8z"/>
			</g>
			<rect x="323.4" y="371.6" class="st5" width="699.2" height="12.4"/>
			<rect x="323.4" y="471.7" class="st5" width="699.2" height="12.4"/>
			<rect x="323.4" y="571.8" class="st5" width="699.2" height="12.4"/>
			<rect x="323.4" y="672.2" class="st6" width="699.2" height="12.4"/>
		</g>
		<g>
			
				<rect x="475.9" y="607.2" transform="matrix(-1 -1.224647e-16 1.224647e-16 -1 969.3012 1279.3881)" class="st7" width="17.5" height="65"/>
			
				<rect x="456.7" y="601.6" transform="matrix(-1 -1.224647e-16 1.224647e-16 -1 928.562 1273.7426)" class="st8" width="15.1" height="70.6"/>
			
				<rect x="437.4" y="601.6" transform="matrix(-0.9926 -0.1215 0.1215 -0.9926 809.1812 1323.0706)" class="st9" width="15.1" height="70.6"/>
			
				<rect x="963.8" y="607.2" transform="matrix(-1 -1.224647e-16 1.224647e-16 -1 1945.037 1279.3881)" class="st7" width="17.5" height="65"/>
			
				<rect x="944.6" y="601.6" transform="matrix(-1 -1.224647e-16 1.224647e-16 -1 1904.2972 1273.7426)" class="st7" width="15.1" height="70.6"/>
			
				<rect x="925.2" y="601.6" transform="matrix(-0.9926 -0.1215 0.1215 -0.9926 1781.3041 1382.3317)" class="st10" width="15.1" height="70.6"/>
			
				<rect x="348" y="659.5" transform="matrix(-1 -1.224647e-16 1.224647e-16 -1 767.4126 1331.6575)" class="st9" width="71.4" height="12.7"/>
			
				<rect x="339.3" y="650.7" transform="matrix(-1 -1.224647e-16 1.224647e-16 -1 749.9516 1310.2122)" class="st2" width="71.4" height="8.7"/>
			
				<rect x="346.3" y="642" transform="matrix(-1 -1.224647e-16 1.224647e-16 -1 761.0463 1292.7357)" class="st11" width="68.4" height="8.7"/>
			
				<rect x="344.6" y="635.3" transform="matrix(-1 -1.224647e-16 1.224647e-16 -1 751.0996 1277.3235)" class="st8" width="61.8" height="6.7"/>
			
				<rect x="690.7" y="659.5" transform="matrix(-1 -1.224647e-16 1.224647e-16 -1 1452.7914 1331.6575)" class="st10" width="71.4" height="12.7"/>
			
				<rect x="682" y="650.7" transform="matrix(-1 -1.224647e-16 1.224647e-16 -1 1435.3304 1310.2122)" class="st12" width="71.4" height="8.7"/>
			
				<rect x="689" y="642" transform="matrix(-1 -1.224647e-16 1.224647e-16 -1 1446.4253 1292.7357)" class="st10" width="68.4" height="8.7"/>
			
				<rect x="687.3" y="635.3" transform="matrix(-1 -1.224647e-16 1.224647e-16 -1 1436.4789 1277.3235)" class="st7" width="61.8" height="6.7"/>
			
				<rect x="679.6" y="626.6" transform="matrix(-1 -1.224647e-16 1.224647e-16 -1 1430.6284 1261.9114)" class="st12" width="71.4" height="8.7"/>
			
				<rect x="686.6" y="617.8" transform="matrix(-1 -1.224647e-16 1.224647e-16 -1 1441.723 1244.4349)" class="st10" width="68.4" height="8.7"/>
			
				<rect x="685" y="611.2" transform="matrix(-1 -1.224647e-16 1.224647e-16 -1 1431.7764 1229.0228)" class="st7" width="61.8" height="6.7"/>
			
				<rect x="637.2" y="601.6" transform="matrix(-1 -1.224647e-16 1.224647e-16 -1 1286.5288 1273.4622)" class="st13" width="12.2" height="70.3"/>
			
				<rect x="786.8" y="598.3" transform="matrix(-1 -1.224647e-16 1.224647e-16 -1 1585.8422 1270.2395)" class="st13" width="12.2" height="73.6"/>
			
				<rect x="823.7" y="601.6" transform="matrix(-1 -1.224647e-16 1.224647e-16 -1 1659.5791 1273.4622)" class="st13" width="12.2" height="70.3"/>
			
				<rect x="621.8" y="595.8" transform="matrix(-1 -1.224647e-16 1.224647e-16 -1 1258.9769 1267.6635)" class="st14" width="15.4" height="76.1"/>
			
				<rect x="838.4" y="595.8" transform="matrix(-1 -1.224647e-16 1.224647e-16 -1 1692.2021 1267.6635)" class="st14" width="15.4" height="76.1"/>
			
				<rect x="606.4" y="599.4" transform="matrix(-1 -1.224647e-16 1.224647e-16 -1 1228.2142 1271.2913)" class="st12" width="15.4" height="72.5"/>
			
				<rect x="757.1" y="588.9" transform="matrix(-0.9851 0.172 -0.172 -0.9851 1626.6064 1119.1619)" class="st12" width="15.4" height="82.3"/>
			
				<rect x="591" y="610.5" transform="matrix(-1 -1.224647e-16 1.224647e-16 -1 1197.4521 1282.4114)" class="st7" width="15.4" height="61.4"/>
			
				<rect x="858.5" y="610.5" transform="matrix(-1 -1.224647e-16 1.224647e-16 -1 1732.4521 1282.4114)" class="st7" width="15.4" height="61.4"/>
			
				<rect x="575.7" y="607.2" transform="matrix(-1 -1.224647e-16 1.224647e-16 -1 1166.6899 1279.1077)" class="st15" width="15.4" height="64.7"/>
			
				<rect x="557.8" y="607.2" transform="matrix(-1 -1.224647e-16 1.224647e-16 -1 1131.0082 1279.1077)" class="st10" width="15.4" height="64.7"/>
			
				<rect x="876.1" y="607.2" transform="matrix(-1 -1.224647e-16 1.224647e-16 -1 1767.4896 1279.1077)" class="st10" width="15.4" height="64.7"/>
			
				<rect x="539.6" y="601.6" transform="matrix(-1 -1.224647e-16 1.224647e-16 -1 1094.4969 1273.4622)" class="st16" width="15.4" height="70.3"/>
			
				<rect x="806.8" y="601.6" transform="matrix(-1 -1.224647e-16 1.224647e-16 -1 1628.9008 1273.4622)" class="st16" width="15.4" height="70.3"/>
		</g>
		<g>
			<rect x="827.1" y="307" class="st2" width="17.5" height="65"/>
			<rect x="848.7" y="301.3" class="st11" width="15.1" height="70.6"/>
			
				<rect x="868" y="301.3" transform="matrix(0.9926 -0.1214 0.1214 0.9926 -34.3983 108.8257)" class="st2" width="15.1" height="70.6"/>
			<rect x="546.2" y="406.7" class="st8" width="17.5" height="65"/>
			<rect x="567.7" y="401.1" class="st11" width="15.1" height="70.6"/>
			
				<rect x="587.1" y="401.1" transform="matrix(0.9926 -0.1215 0.1215 0.9926 -48.6064 75.4602)" class="st8" width="15.1" height="70.6"/>
			<rect x="339.3" y="307" class="st2" width="17.5" height="65"/>
			<rect x="360.8" y="301.3" class="st9" width="15.1" height="70.6"/>
			
				<rect x="380.2" y="301.3" transform="matrix(0.9926 -0.1214 0.1214 0.9926 -38.0081 49.5774)" class="st8" width="15.1" height="70.6"/>
			<rect x="901.1" y="359.2" class="st9" width="71.4" height="12.7"/>
			<rect x="909.9" y="350.5" class="st2" width="71.4" height="8.7"/>
			<rect x="905.8" y="341.7" class="st11" width="68.4" height="8.7"/>
			<rect x="914.1" y="335.1" class="st2" width="61.8" height="6.7"/>
			<rect x="558.4" y="359.2" class="st11" width="71.4" height="12.7"/>
			<rect x="567.2" y="350.5" class="st9" width="71.4" height="8.7"/>
			<rect x="563.1" y="341.7" class="st8" width="68.4" height="8.7"/>
			<rect x="571.4" y="335.1" class="st2" width="61.8" height="6.7"/>
			<rect x="569.5" y="326.3" class="st9" width="71.4" height="8.7"/>
			<rect x="565.4" y="317.6" class="st8" width="68.4" height="8.7"/>
			<rect x="573.7" y="310.9" class="st9" width="61.8" height="6.7"/>
			<rect x="671.2" y="301.3" class="st2" width="12.2" height="70.3"/>
			<rect x="521.5" y="298.1" class="st8" width="12.2" height="73.6"/>
			<rect x="484.7" y="301.3" class="st9" width="12.2" height="70.3"/>
			<rect x="683.3" y="295.5" class="st11" width="15.4" height="76.1"/>
			<rect x="466.7" y="295.5" class="st2" width="15.4" height="76.1"/>
			<rect x="698.7" y="299.1" class="st9" width="15.4" height="72.5"/>
			
				<rect x="548" y="288.7" transform="matrix(0.9851 0.172 -0.172 0.9851 65.0027 -90.6625)" class="st2" width="15.4" height="82.3"/>
			<rect x="781.9" y="459" class="st10" width="71.4" height="12.7"/>
			<rect x="790.6" y="450.3" class="st12" width="71.4" height="8.7"/>
			<rect x="786.6" y="441.5" class="st10" width="68.4" height="8.7"/>
			<rect x="794.8" y="434.8" class="st7" width="61.8" height="6.7"/>
			<rect x="793" y="426.1" class="st12" width="71.4" height="8.7"/>
			<rect x="788.9" y="417.4" class="st10" width="68.4" height="8.7"/>
			<rect x="797.2" y="410.7" class="st7" width="61.8" height="6.7"/>
			
				<rect x="771.5" y="388.4" transform="matrix(0.9851 0.172 -0.172 0.9851 85.4821 -127.596)" class="st12" width="15.4" height="82.3"/>
			<rect x="714.1" y="310.3" class="st8" width="15.4" height="61.4"/>
			<rect x="446.6" y="310.3" class="st11" width="15.4" height="61.4"/>
			<rect x="729.5" y="307" class="st15" width="15.4" height="64.7"/>
			<rect x="747.3" y="307" class="st10" width="15.4" height="64.7"/>
			<rect x="429.1" y="307" class="st2" width="15.4" height="64.7"/>
			<rect x="724.6" y="395.6" class="st2" width="15.4" height="76.1"/>
			<rect x="704.5" y="410.3" class="st2" width="15.4" height="61.4"/>
			<rect x="687" y="407" class="st8" width="15.4" height="64.7"/>
			<rect x="635.6" y="407" class="st8" width="15.4" height="64.7"/>
			<rect x="614.1" y="407" class="st9" width="15.4" height="64.7"/>
			<rect x="371.9" y="395.6" class="st9" width="15.4" height="76.1"/>
			
				<rect x="391.9" y="395.6" transform="matrix(0.9926 -0.1215 0.1215 0.9926 -49.7097 51.7463)" class="st8" width="15.4" height="76.1"/>
			<rect x="351.8" y="410.3" class="st11" width="15.4" height="61.4"/>
			<rect x="334.3" y="407" class="st9" width="15.4" height="64.7"/>
			<rect x="765.6" y="301.3" class="st16" width="15.4" height="70.3"/>
			<rect x="601.6" y="501.4" class="st8" width="12.2" height="70.3"/>
			<rect x="613.8" y="495.6" class="st2" width="15.4" height="76.1"/>
			<rect x="629.2" y="499.2" class="st9" width="15.4" height="72.5"/>
			<rect x="644.6" y="510.4" class="st7" width="15.4" height="61.4"/>
			<rect x="660" y="507.1" class="st15" width="15.4" height="64.7"/>
			<rect x="677.8" y="507.1" class="st10" width="15.4" height="64.7"/>
			<rect x="696.1" y="501.4" class="st16" width="15.4" height="70.3"/>
			<rect x="880.1" y="401.4" class="st16" width="15.4" height="70.3"/>
			<rect x="896.9" y="401.4" class="st2" width="15.4" height="70.3"/>
			<rect x="498.4" y="301.3" class="st9" width="15.4" height="70.3"/>
			<rect x="860.7" y="559.4" class="st10" width="71.4" height="12.7"/>
			<rect x="869.5" y="550.6" class="st12" width="71.4" height="8.7"/>
			<rect x="865.4" y="541.9" class="st10" width="68.4" height="8.7"/>
			<rect x="873.7" y="535.2" class="st7" width="61.8" height="6.7"/>
			<rect x="871.8" y="526.5" class="st12" width="71.4" height="8.7"/>
			<rect x="867.7" y="517.7" class="st10" width="68.4" height="8.7"/>
			<rect x="876" y="511.1" class="st7" width="61.8" height="6.7"/>
			<rect x="823.8" y="498.2" class="st13" width="12.2" height="73.6"/>
			<rect x="787" y="501.5" class="st13" width="12.2" height="70.3"/>
			<rect x="769" y="495.7" class="st14" width="15.4" height="76.1"/>
			
				<rect x="850.3" y="488.8" transform="matrix(0.9851 0.1719 -0.1719 0.9851 103.8882 -139.6255)" class="st12" width="15.4" height="82.3"/>
			<rect x="748.9" y="510.4" class="st7" width="15.4" height="61.4"/>
			<rect x="731.4" y="507.1" class="st10" width="15.4" height="64.7"/>
			<rect x="569.6" y="495.7" class="st8" width="15.4" height="76.1"/>
			<rect x="549.4" y="510.4" class="st7" width="15.4" height="61.4"/>
			<rect x="531.9" y="507.1" class="st10" width="15.4" height="64.7"/>
			<rect x="508" y="495.7" class="st14" width="15.4" height="76.1"/>
			<rect x="487.8" y="510.4" class="st7" width="15.4" height="61.4"/>
			<rect x="470.3" y="507.1" class="st2" width="15.4" height="64.7"/>
			<rect x="800.7" y="501.5" class="st16" width="15.4" height="70.3"/>
		</g>
	</g>
	<g>
		<path class="st2" d="M1191.4,355.8h-79c-7.2,0-13.2-5.9-13.2-13.2v-75.9c0-7.2,5.9-13.2,13.2-13.2h79c7.2,0,13.2,5.9,13.2,13.2
			v75.9C1204.5,349.9,1198.6,355.8,1191.4,355.8z"/>
		<path class="st17" d="M1187.9,351.4h-72.2c-6.6,0-12-5.4-12-12V270c0-6.6,5.4-12,12-12h72.2c6.6,0,12,5.4,12,12v69.3
			C1200,345.9,1194.6,351.4,1187.9,351.4z"/>
		<g>
			<g>
				<path class="st2" d="M1149.7,267.3c0-1.2,1-2.2,2.2-2.2c1.2,0,2.2,1,2.2,2.2c0,1.2-1,2.2-2.2,2.2
					C1150.6,269.5,1149.7,268.5,1149.7,267.3z"/>
				<path class="st2" d="M1167.3,270.4c0.6-1.1,1.9-1.4,3-0.8c1.1,0.6,1.4,1.9,0.8,3c-0.6,1.1-1.9,1.4-3,0.8
					C1167.1,272.8,1166.7,271.5,1167.3,270.4z"/>
				<path class="st2" d="M1182.4,282.4c1-0.7,2.4-0.4,3,0.7c0.7,1,0.4,2.4-0.7,3c-1,0.7-2.4,0.4-3-0.7
					C1181.1,284.4,1181.4,283,1182.4,282.4z"/>
				<path class="st2" d="M1189.8,300.9c1.2,0,2.2,1,2.2,2.2c0,1.2-1,2.2-2.2,2.2c-1.2,0-2.2-1-2.2-2.2
					C1187.7,301.9,1188.6,300.9,1189.8,300.9z"/>
				<path class="st2" d="M1186,322.5c0.9,0.9,0.9,2.2,0,3.1c-0.9,0.9-2.2,0.9-3.1,0c-0.9-0.9-0.9-2.2,0-3.1
					C1183.8,321.6,1185.2,321.6,1186,322.5z"/>
				<circle class="st2" cx="1170.8" cy="337.8" r="2.2"/>
				<path class="st2" d="M1149.7,343.3c0-1.2,1-2.2,2.2-2.2c1.2,0,2.2,1,2.2,2.2c0,1.2-1,2.2-2.2,2.2
					C1150.6,345.5,1149.7,344.5,1149.7,343.3z"/>
			</g>
			<g>
				<path class="st2" d="M1136.3,270.4c-0.6-1.1-1.9-1.4-3-0.8c-1.1,0.6-1.4,1.9-0.8,3c0.6,1.1,1.9,1.4,3,0.8
					C1136.6,272.8,1136.9,271.5,1136.3,270.4z"/>
				<path class="st2" d="M1121.3,282.4c-1-0.7-2.4-0.4-3,0.7c-0.7,1-0.4,2.4,0.7,3c1,0.7,2.4,0.4,3-0.7
					C1122.6,284.4,1122.3,283,1121.3,282.4z"/>
				<path class="st2" d="M1113.8,300.9c-1.2,0-2.2,1-2.2,2.2c0,1.2,1,2.2,2.2,2.2s2.2-1,2.2-2.2C1116,301.9,1115,300.9,1113.8,300.9
					z"/>
				<path class="st2" d="M1117.6,322.5c-0.9,0.9-0.9,2.2,0,3.1c0.9,0.9,2.2,0.9,3.1,0c0.9-0.9,0.9-2.2,0-3.1
					C1119.8,321.6,1118.5,321.6,1117.6,322.5z"/>
				<path class="st2" d="M1131.3,336.2c-0.9,0.9-0.9,2.2,0,3.1c0.9,0.9,2.2,0.9,3.1,0c0.9-0.9,0.9-2.2,0-3.1
					C1133.5,335.4,1132.2,335.4,1131.3,336.2z"/>
			</g>
		</g>
		<g>
			<path class="st2" d="M1151.3,303.1c0-1.2,1-2.2,2.2-2.2c1.2,0,2.2,1,2.2,2.2c0,1.2-1,2.2-2.2,2.2
				C1152.2,305.3,1151.3,304.3,1151.3,303.1z"/>
			<g>
				<rect x="1153.1" y="275.9" class="st2" width="0.6" height="27.3"/>
			</g>
			<g>
				
					<rect x="1151.2" y="296.5" transform="matrix(0.7867 -0.6174 0.6174 0.7867 63.9188 779.8224)" class="st2" width="18.4" height="1.8"/>
			</g>
		</g>
	</g>
	<g>
		<path class="st18" d="M1313.9,840c0,0,99.8-95,127.9-72.9C1469.7,789.2,1313.9,840,1313.9,840z"/>
		<path class="st18" d="M1306.7,858.3c0,0,185.8-83.2,229.7-39.2c44,44-51,38.5-86.1,33.6C1415.1,847.8,1306.7,858.3,1306.7,858.3z"
			/>
		<path class="st18" d="M1298.9,837.9c0,0,0.9-4.7,2.1-11.5c2.3-13.4,5.9-35,6.5-46.2c0.9-17,14.6-29.1,29.7-11.8
			c15,17.3-32.4,64.8-32.4,64.8L1298.9,837.9z"/>
	</g>
	<path class="st18" d="M1351.6,512.8c-13.6-35.6-74.1-17.9-74.1-17.9s-35.5,68.2-47.5,71c-12,2.8,18.9-64.2,18.9-64.2
		c-23.8,0.1-81.1,35.1-81.1,35.1s11.3,74.3-1,74c-12.3-0.3-6.7-66.3-6.7-66.3c-22.2,9.2-40.8,38-40.8,38
		c-22.3,46.1,38.1,72.3,38.1,72.3s3.4,25.8-9.6,57.1l0,0c0,0-3.1,5.8-5.8,15.5l6.2-0.6c0.3-1.7,0.7-3.4,1.2-5c0,0,0,0,0,0
		c0,0,0,0,0-0.1c0.3-1,0.8-2.4,1.4-4.2c0,0,0,0,0,0c0,0,0,0,0,0c1.5-3.9,2.5-6.8,3.1-8.9c0,0,0,0,0,0c4.5-12.3,11.2-28.3,16.4-32.1
		c0,0-0.8-0.9-1.6-2.7c0.5,0.9,1.1,1.8,1.6,2.7c13,21.8,66.7,20.2,95.8,11.1c29.1-9.1,15.3-16.2-2.1-28.2c-17.4-12-50.5-5-61-9.4
		c-10.4-4.3,3.5-11.1,23.5-11.6c20-0.5,31.9,18.3,64.2,18.2c32.3-0.2,50.6-62.8,50.6-62.8c-21.4,9.1-62.2,0.9-64.5-6.6
		c-2.3-7.5,56.4-12.6,65.4-15.8C1351,568.2,1365.1,548.3,1351.6,512.8z"/>
	<path class="st18" d="M375.6,826.9c-28-34.2,24.7-85,24.7-85s89.1,3.7,98.8-6.9c9.7-10.5-75.6-18-75.6-18
		c13.9-24,82.1-61.4,82.1-61.4s68.2,54.3,75.1,41.7c6.8-12.6-62.9-45-62.9-45c22-17,61.8-19.2,61.8-19.2
		c59.3,4.2,50.9,80.1,50.9,80.1s24.1,18.3,63.1,23.3h0c0,0,7.7,0.3,19,3.1l-4.2,5.9c-1.9-0.7-3.8-1.2-5.7-1.7c0,0,0,0,0,0
		c0,0-0.1,0-0.1,0c-1.2-0.2-2.9-0.6-5-1c0,0,0,0,0,0c0,0,0,0,0,0c-4.8-0.7-8.3-1.4-10.7-1.9c0,0,0,0,0,0c-15-2.5-35-5.1-41.8-2
		c0,0-0.5-1.3-1.8-3.2c0.6,1,1.2,2.1,1.8,3.2c14.4,25.6-18.1,78.8-44.1,102.8c-25.9,24.1-25.1,6.1-27.2-18.3
		c-2-24.4,24.1-53.8,25.8-66.8c1.7-13-13.2-2.9-25.2,16.9c-12,19.8,0.1,42.7-18.7,75.1c-18.8,32.4-92.4,14.7-92.4,14.7
		c21.5-16.3,36.8-62.2,30.6-68.8c-6.2-6.6-45.3,49.6-53.6,56.7C431.8,858.3,403.6,861.1,375.6,826.9z"/>
	<g>
		<path class="st17" d="M870.7,815.4H608.9V676.8h263.4c37.8,0,68.5,30.7,68.5,68.5l0,0C940.8,784,909.4,815.4,870.7,815.4z"/>
		<path class="st9" d="M1188.3,733.8v20.8c0,11.1-2.2,21.6-6.1,30.5c-7.8,18-22.2,30.2-38.8,30.2H600c-3.6,0-6.5-3.9-6.5-8.8v-3.1
			c0-4.9,2.9-8.8,6.5-8.8H922c6.1,0,11.7-3.7,13.9-9.3c0,0,0-0.1,0-0.1c3.1-7.9,4.9-16.9,4.9-26.5v-26.5c0-4.9-0.5-9.6-1.3-14.1
			c0-0.1,0-0.2,0-0.2c-2.3-11.9-12.9-20.3-25-20.3H600c-3.6,0-6.5-3.9-6.5-8.8v-3.1c0-4.9,2.9-8.8,6.5-8.8h546.1
			c19.2,0,35.5,17.5,40.5,41.3C1187.7,723.1,1188.3,728.4,1188.3,733.8z"/>
		<polygon class="st19" points="608.9,746.1 649.1,748.4 608.9,749.8 		"/>
		<polygon class="st19" points="608.9,767.8 704.6,770.2 608.9,771.6 		"/>
	</g>
	<g>
		<path class="st17" d="M860.9,565.4H645.2V448.7h217c31.9,0,57.7,25.8,57.7,57.7l0,0C919.9,539,893.5,565.4,860.9,565.4z"/>
		<path class="st11" d="M1124.8,496.7v17.6c0,9.4-1.8,18.2-5,25.7c-6.4,15.2-18.4,25.4-32.1,25.4H637.9c-3,0-5.4-3.3-5.4-7.4v-2.6
			c0-4.1,2.4-7.4,5.4-7.4H912c1.5-2.5,2.8-5.1,3.8-8c2.6-6.7,4-14.3,4-22.3v-22.3c0-4.1-0.4-8.1-1.1-11.9
			c-1.2-6.4-3.4-12.3-6.4-17.3H637.9c-3,0-5.4-3.3-5.4-7.4v-2.6c0-4.1,2.4-7.4,5.4-7.4h452.1c15.9,0,29.4,14.7,33.5,34.8
			C1124.3,487.7,1124.8,492.1,1124.8,496.7z"/>
		<polygon class="st19" points="645.2,507 678.5,509 645.2,510.2 		"/>
		<polygon class="st19" points="645.2,525.4 724.4,527.3 645.2,528.5 		"/>
	</g>
	<g>
		<g>
			<g>
				<path class="st6" d="M675.8,906h321.1v-90.8H673c-24.3,0-44,19.7-44,44l0,0C629,885,650,906,675.8,906z"/>
				<path class="st17" d="M982,906h365.8v-90.8H981c-24.8,0-44.9,20.1-44.9,44.9l0,0C936.1,885.4,956.6,906,982,906z"/>
				<path class="st6" d="M911.9,906h448.2c3.8,0,6.8-3,6.8-6.8l0,0c0-3.8-3-6.8-6.8-6.8H911.9c-3.8,0-6.8,3-6.8,6.8v0
					C905.1,902.9,908.2,906,911.9,906z"/>
				<path class="st6" d="M911.9,828.7h448.2c3.8,0,6.8-3,6.8-6.8l0,0c0-3.8-3-6.8-6.8-6.8H911.9c-3.8,0-6.8,3-6.8,6.8l0,0
					C905.1,825.7,908.2,828.7,911.9,828.7z"/>
			</g>
			<polygon class="st19" points="1347.8,860.6 1297.9,862.1 1347.8,863 			"/>
			<polygon class="st19" points="1347.8,839.6 1229.1,841.2 1347.8,842.1 			"/>
		</g>
		<g>
			<path class="st20" d="M1230.3,840.9c0,0,5.1,3.9,6.8,10.3c0.3,1.1,0.5,2.3,0.5,3.6c0.3,8.5,0,27.8,0,27.8l15-9.6l15,9.6v-26.1
				c0-4.9-1.3-9.8-3.7-12.9c-1.2-1.5-2.6-2.7-4.2-2.7H1230.3z"/>
			<path class="st9" d="M1230.3,840.9c0,0,5.1,3.9,6.8,10.3l30.1,0.4c0,0-1.2-9.2-7.4-10.7H1230.3z"/>
		</g>
	</g>
	<g>
		<path class="st17" d="M891.4,676.8H1248V565.4H890.2c-30.4,0-55.1,24.7-55.1,55.1l0,0C835.1,651.6,860.3,676.8,891.4,676.8z"/>
		<path class="st21" d="M834.9,608.7v24c0,3.7,0.9,7.2,2.5,10.4c2.9,5.7,7.9,10.4,14.3,13.5c4.9,2.3,10.6,3.7,16.6,3.7h390.5
			c4.6,0,8.3,3.1,8.3,6.9v2.8c0,3.8-3.7,6.9-8.3,6.9H584.3c-19.4,0-36.5-8-46.8-20.3c-6.5-7.7-10.3-17.2-10.3-27.4v-18.9
			c0-7,1.9-13.6,5.3-19.5c8.7-15,27-25.3,48.3-25.3h678.1c4.6,0,8.3,3.1,8.3,6.9v2.8c0,3.8-3.7,6.9-8.3,6.9H867.2
			c-9.4,0-17.8,3.3-23.7,8.7c-2.6,2.3-4.6,5-6.1,7.9C835.8,601.7,834.9,605.1,834.9,608.7z"/>
		<polygon class="st19" points="1248,621.1 1198,623 1248,624.1 		"/>
		<polygon class="st19" points="1248,595.5 1128.9,597.4 1248,598.5 		"/>
		<g>
			<path class="st22" d="M1130.1,597c0,0,7.9,3.5,10.5,9.3c0.5,1,0.8,2.1,0.8,3.2c0.4,7.7,0,25.2,0,25.2l23.2-8.7l23.1,8.7v-23.7
				c0-4.5-2-8.8-5.7-11.7c-1.8-1.4-4-2.4-6.4-2.4H1130.1z"/>
			<path class="st23" d="M1130.1,597c0,0,7.9,3.5,10.5,9.3l46.5,0.3c0,0-1.8-8.3-11.4-9.7H1130.1z"/>
		</g>
	</g>
	<path class="st5" d="M1682.8,908v0.7c0,1.1-0.8,2-1.9,2H29.6c-1,0-1.9-0.9-1.9-2V908c0-1.1,0.8-2,1.9-2h1651.4
		C1682,906,1682.8,906.9,1682.8,908z"/>
	<g>
		<path class="st24" d="M794.4,289.2c0,0,8.5,12.5,13.3,38.8c4.2,23,7.9,31.5,14,36.2c6.1,4.7,40.1,18.7,40.1,18.7l-2.5,5.9
			c0,0-49.8-6.8-55.4-15.1c-5.6-8.3-26.9-57.5-25.3-68.8C780.3,293.6,794.4,289.2,794.4,289.2z"/>
		<g>
			<path class="st24" d="M916.3,563.8c-0.4,4.9,6.3,6,14.1,6.4c7.8,0.4,5.5,2,16.2,3.9c10.7,1.9,15-1,15.8-2.4
				c0.7-1.3-4.3-3.3-9.6-5.6c-0.7-0.3-1.3-0.6-2-0.9c-6-2.6-9.3-8-14-13c-4.4-4.7-8.6-19.8-8.6-19.8l-14.6-3.1
				c0,0,4.1,13.6,5.5,19.4c0.8,3.4-0.4,7.2-1.5,10.1C917.1,560.5,916.5,562.1,916.3,563.8z"/>
			<path class="st25" d="M930.5,570.2c7.8,0.4,5.5,2,16.2,3.9c10.7,1.9,15-1,15.8-2.4c0.7-1.3-4.3-3.3-9.6-5.6l-0.1,0.1
				c0,0-7.5,2.6-16.3,0.2c-7.1-1.9-14-6.2-18.8-7.5c-0.6,1.6-1.2,3.2-1.3,4.9C915.9,568.7,922.6,569.9,930.5,570.2z"/>
		</g>
		<path class="st9" d="M771.2,390.9c0,0,96.9-7.3,115.1,4.2c18.2,11.5,47.5,145.6,47.5,145.6s-1.8,1.4-5.8,1.9
			c-3.8,0.4-12-1.8-12-1.8s-42-60-45-75.1c-3-15.1-2.2-28.6-9-29c-6.7-0.4-90.8,10.2-103.5-12.2c-12.7-22.4-2.2-44.6-2.2-44.6
			L771.2,390.9z"/>
		<g>
			<path class="st26" d="M879.3,579.4c-0.4,4.9,6.3,6,14.1,6.4c7.8,0.4,5.5,2,16.2,3.9c10.7,1.9,15-1,15.8-2.4
				c0.7-1.3-4.3-3.3-9.6-5.6c-0.7-0.3-1.3-0.6-2-0.9c-6-2.6-9.3-8-14-13c-4.4-4.7-8.6-19.8-8.6-19.8l-14.6-3.1
				c0,0,4.1,13.6,5.5,19.4c0.8,3.4-0.4,7.2-1.5,10.1C880,576.1,879.4,577.7,879.3,579.4z"/>
			<path class="st25" d="M893.4,585.8c7.8,0.4,5.5,2,16.2,3.9c10.7,1.9,15-1,15.8-2.4c0.7-1.3-4.3-3.3-9.6-5.6l-0.1,0.1
				c0,0-7.5,2.6-16.3,0.2c-7.1-1.9-14-6.2-18.8-7.5c-0.6,1.6-1.2,3.2-1.3,4.9C878.8,584.2,885.6,585.4,893.4,585.8z"/>
		</g>
		<path class="st20" d="M752.2,396.9c0,0,86.1,4.1,103.8,16.3c17.8,12.2,41.8,147.3,41.8,147.3s-1.9,1.4-5.9,1.7
			c-3.8,0.3-11.9-2.3-11.9-2.3s-39.7-61.6-42-76.8c-2.4-15.2-1.1-28.7-7.8-29.3c-6.7-0.6-91.1,6.7-103-16.2
			C715.3,414.8,752.2,396.9,752.2,396.9z"/>
		<path class="st5" d="M790.7,212.2c-3.3-3.2-7.8-4.6-11.1-5.2c1.1-0.6,2.8-0.5,2.8-0.5c-1.9-0.8-6.9,0-6.9,0
			c-25.1-17.9-40,22-41.9,31.7c-1.9,9.7-5.3,23.5-17.1,35.5c-30.3,30.8,13,66.4,13,66.4c0.2,0.2,21.8-46,43.4-53.4
			c6.2-5.5,10.8-16.8,11.2-17.7c-3.2,9.1-6.1,13.9-8.3,16.5C795.2,275,799.4,220.6,790.7,212.2z"/>
		<path class="st26" d="M748.6,274.8c0,0,8-0.8,16,0c5.4,0.5,10.8,2.2,13.9,3.5c7.6,3.2,6.8,16.6-9.1,14.1
			C753.5,289.9,747.4,278.8,748.6,274.8z"/>
		<path class="st26" d="M777.8,284.6c0.1,0,2.3,11.6-8.2,11.1c-6.8-0.3-21.6-8.6-20.3-14.4c0.6-2.8,5.8-10,6.8-26.5l1.2,0.3
			l20.9,5.6c0,0-0.9,6.6-1.4,12.9C776.7,278.9,776.7,283.9,777.8,284.6z"/>
		<path class="st24" d="M778.4,260.7c0,0-0.9,6.6-1.4,12.9c-11.9-1.1-17.4-12.4-19.6-18.6L778.4,260.7z"/>
		<path class="st5" d="M755.5,251.4c0,0-3.6-11.1-2.9-19.6c0.5-6.1,9-26.9,29.9-18.3c0,0,6.1,2.2,11,7.8c3.9,4.4,8.9,13-3.5,29.9
			l-3.6,5.9L755.5,251.4z"/>
		<path class="st26" d="M779,270.3c0,0-27.4-6.5-23.1-23.5c4.3-17,3.7-29.3,21.4-25.8c17.7,3.5,19.4,10.8,19.3,16.8
			C796.6,243.8,786.2,271.6,779,270.3z"/>
		<path class="st5" d="M789.8,223.8c0,0-12.6,18-24.8,18c-12.2,0-16.4-4.3-16.4-4.3s10.6-4.7,15.5-16.5
			C764.2,221,786.6,212.8,789.8,223.8z"/>
		<path class="st27" d="M787.6,224.9c0,0,4.4,5.9,4.7,10.6c0.3,4.7-1.4,13.7,1.3,14.1c0,0,9.1-12.1,4.7-21.4
			C793.6,218.3,787.6,224.9,787.6,224.9z"/>
		<path class="st17" d="M810.1,392.4c-2.3,2.7-9.4,3.6-17,4.8c-6,1-12.3,2.2-16.7,4.8c-10.1,6-43.3,26.1-53,25.2
			c-3.8-0.4-3.1-7.5-0.8-17.1c3.6-15.1,11.1-36,11.1-45.1c0-5,1.7-16.7,3.9-30.1c0.2-1.1,0.4-2.2,0.5-3.3
			c4.4-26.1,10.4-56.9,10.4-56.9s6.7,14.7,19.9,14.7c13.1,0,10.1-11.2,10.1-11.2s12,1.4,14.8,4.5c2.8,3,10,16.2,11.4,19.8
			c0,0,0.3,4.6-11,6.7c0,0,2.8,12.4,3.1,20.7c0.2,6.1-4.2,25.2-5.4,37.1c-0.4,4.2-0.5,7.5,0.2,9c0.9,1.9,3.7,3.8,6.9,5.7
			C804.9,385.6,812.8,389.2,810.1,392.4z"/>
		<path class="st19" d="M798.5,381.9c7.3,12.4-19.7,16.1-24.2,18.7c-10.1,6-41.1,27.5-50.8,26.6c-3.8-0.4-3.1-7.5-0.8-17.1
			c3.6-15.1,11.1-36,11.1-45.1c0-5,1.7-16.7,3.9-30.1l11.7-11.2c0,0,12.5,32.4,24.5,37.7c6.3,2.8,12.8,4.6,17.6,5.7
			c-0.4,4.2-0.5,7.5,0.2,9C792.4,378.1,795.2,380,798.5,381.9z"/>
		<path class="st26" d="M745,284.5c0,0-10-6.1-19.7,5.4c-9.7,11.5,6.9,93.8,21.2,98c15.9,4.7,63.6,4.5,63.6,4.5l-2-5.8
			c0,0-49.6-16-51.6-18.6C754.5,365.4,750.1,285.8,745,284.5z"/>
		<path class="st17" d="M748.6,274.8c0,0-20.5,1.9-26.5,8.6c-6,6.7-7.7,25-7.7,25s18.1,14.6,39.8,8.9L748.6,274.8z"/>
		<g>
			<path class="st27" d="M875.9,362.8l2-18l-25.5,33.5c0,0,10.7,5.3,11.3,4.3C864.3,381.6,875.9,362.8,875.9,362.8z"/>
			<polygon class="st6" points="837.8,362.8 814.3,398.7 853.8,398.7 875.9,362.8 			"/>
			<polygon class="st19" points="875.9,362.8 877.8,345 864.5,361.6 			"/>
			<polygon class="st19" points="815.5,396.9 813.7,395.6 837.1,360.8 837.8,362.8 			"/>
			<polygon class="st17" points="837.1,360.8 874.3,361.9 875.9,362.8 837.8,362.8 			"/>
		</g>
		<path class="st26" d="M829.3,391.6c-0.7-0.1-1.7-0.1-2.5,0c2.8-1.3,5.7-2.8,5.7-2.8s-1.3-1.3-6.2,0.4c-0.6,0.2-1.1,0.2-1.6,0.2
			l6.8-3.1c-1.2-1.1-4.5-0.2-7.1,0.7c-1.8,0.7-3.9,0.4-5.4-0.8c0,0-0.1,0-0.1-0.1c0.1,0,0.2,0,0.3,0c4-0.6,5-2.9,3.9-2.6
			c-1.1,0.3-7.8,0.7-7.8,0.7c-3-0.2-9,2.1-9,2.1l3.4,6.2c0,0,9.6,1.8,12.2,1c0.2-0.1,0.4-0.1,0.7-0.3l0,0l8.8-0.6
			C831.4,392.8,831.3,391.8,829.3,391.6z"/>
	</g>
	<g id="girl_2_5_">
		<path class="st24" d="M1168.5,633.3c0,0,50.6,22,59.8,21.6c9.2-0.4,65.8-17.2,65.8-17.2l-1.4,9.7c0,0-43.7,25.1-59,26.5
			c-15,1.4-66.4-13.5-71.4-16.6C1157.3,654.2,1154,636.5,1168.5,633.3z"/>
		<path class="st5" d="M1160.9,552.2c0,0-18.7-3.5-28,3.2c-16.8,12.3-17.7,54.7-24.1,61c-6.3,6.3-21.5,3.6-22.9,36.3
			c-1.4,32.7,6.1,35.4-2.8,50c-8.8,14.6,3.7,29.2,3.7,29.2s-5.1-8.1-2.9-13.9c0,0,2.1,12.8,10.3,15.8c8.2,3,9.4,5.2,10.7,9.6
			c0,0,69.5-35.6,69.6-60.9c0.1-25.3,13.7-50.3,7-61.3c0,0,3,4.7,3.3,9.9c0,0,4-7.7-2.9-14.8c-6.9-7.2,8.2-22,5.9-39.1
			C1186.3,565.6,1178.1,552.7,1160.9,552.2z"/>
		<path class="st26" d="M1174.6,657.4c-4.4,3.1-10,5.6-17,7.2c-26.2,6.1-36.3-16.1-40-31.3c3.6-2,6.9-2.5,8.9-2.7
			c1.9-0.2,3.9-0.4,5.5-0.5c2.9-2.3,7.3-11.5,8.3-25.8l1.2,0.3l20.7,5.7c0,0-0.9,6.6-1.4,12.8c-0.4,4.9-0.4,9.5,0.5,10.6
			c1.6,0.4,2.6,0.6,2.6,0.6s0,0,0,0C1164.1,634.8,1170.1,644.7,1174.6,657.4z"/>
		<path class="st24" d="M1162.2,610.3c0,0-1,6.6-1.4,12.8c-11.7-1.2-17.1-12.3-19.3-18.4L1162.2,610.3z"/>
		<path class="st26" d="M1165.7,616.5c0,0-27.8-1.5-26.6-18.8c1.2-17.3-1.5-29.1,16.3-28.9c17.8,0.2,20.8,7.1,21.8,13
			C1178.1,587.6,1172.9,616.4,1165.7,616.5z"/>
		<path class="st5" d="M1177,572.1c-3.9-5.5-7.2-4.6-9.2-3.2c-14.6-9.4-25.2,2.2-25.2,2.2c-2.7,12.3-12.2,18.7-12.2,18.7
			s4.8,3.5,16.7,1.3c3.6-0.7,7-3,9.9-5.8c-5.3,7.6-12.1,12.8-12.1,12.8c14.4-5.4,21.4-24.4,22.1-26.4c1.6,1.6,4.7,5.2,5.5,8.5
			c1.1,4.5,5.7,11.5,8.3,11.4C1180.8,591.6,1182.9,580.3,1177,572.1z"/>
		<path class="st28" d="M1109.6,713.9c-2.5-12.8-10.7-64.1-2.5-80.6c2.9-5.9,14.5-6.5,27.1-5.9c3.9,2.5,18.9,12.1,25.1,10.9
			c0.1,0,0.2,0,0.3-0.1c2.9-0.7,4-2.8,1.6-4.5c0,0,6.3-0.6,14,0.9c4.4,0.8,16.3,7,16.3,7s-6,10.8-14.8,14.5
			c1.5,13.4-0.7,19.3-14.6,50.2c-11.7,26.1,1.6,49.7,1.6,49.7s-69.1,55.6-69.5,27.3C1094,762,1112.8,730.3,1109.6,713.9z"/>
		<path class="st29" d="M1167.2,816.4c3.8-0.4,7.1-2.5,9.2-5.6c0.3-0.5,0.7-1,1.1-1.6c7.9-11.9,10.9-48.4,28.6-87.2
			c4.3-9.5,19.8-11.2,24-21.9c0,0,10.4-34.7-19.9-35.7c-30.3-1-81,96.4-81.8,106.7C1127.6,781,1108.4,823,1167.2,816.4z"/>
		<path class="st9" d="M1287.4,815.6h-43.1c0,0-1.6-6.9,1.2-11.5c2.5-4.1,1.5-6.5-0.3-9.9c2,0.8,4.5,1.5,7.3,1.4
			c2.1-0.1,4.4-1.1,6.4-2.3c1.9,2.1,9.8,11.1,12.3,12.9C1274,808.2,1286.6,807.5,1287.4,815.6z"/>
		<path class="st30" d="M1114.2,646.8c0,0-5.6,51,30.7,61.7c36.3,10.7,46.7-46.9,17.3-51.1C1132.9,653.2,1114.2,646.8,1114.2,646.8z
			"/>
		<path class="st29" d="M1231.1,674.4c2.6,19.4,12.7,80.8,30.6,110.7c5.8,9.7-14.5,15.1-14.6,15c-2.7-0.7-7.2-5-9.3-6.9
			c-14.5-13.1-43.9-50.1-43.9-79.7c0-14.5-0.3-42.1,10.3-49.1C1210.5,660.1,1230.1,666.7,1231.1,674.4z"/>
		<path class="st31" d="M1141.5,815.6c0,0,1.6-2.2,4.4-6.4c3.3-5,7-14.9,11.4-27.5c4.7-13.3,10.2-29.6,17.1-46.6
			c2.1-5.2,4.4-10.6,6.8-15.9c4.3-9.5,16.2-8.2,20.4-18.8c0,0,16.5-37.1-13.8-38.1c-30.3-1-87.7,99.2-91.1,108.9
			C1093.2,781.7,1075.5,825.8,1141.5,815.6z"/>
		<path class="st20" d="M1255.8,815.6h-43.1c0,0-1.6-6.9,1.2-11.5c2.5-4.1,1.5-6.5-0.3-9.9c2,0.8,4.5,1.5,7.3,1.4
			c2.1-0.1,4.4-1.1,6.4-2.3c1.9,2.1,9.8,11.1,12.3,12.9C1242.4,808.2,1255,807.5,1255.8,815.6z"/>
		<path class="st11" d="M1157.3,781.6c4.7-13.3,10.2-29.6,17.1-46.6c-1.8-12.9-5.7-24.2-12.3-28.7
			C1162.2,706.3,1146.3,755.6,1157.3,781.6z"/>
		<path class="st31" d="M1206,673c2.6,19.4,6.2,82.2,24.1,112.1c5.8,9.7-14.5,15.1-14.6,15c-2.7-0.7-7.2-5-9.3-6.9
			c-14.5-13.1-43.9-50.1-43.9-79.7c0-14.5,17-40.9,27.5-48C1196.2,661.2,1204.9,665.3,1206,673z"/>
		<path class="st17" d="M1170.9,606.5c0,0-2.6-1-10-0.4c0,0,0.4,2.9,5.8,3.2C1169.8,609.4,1170.9,606.5,1170.9,606.5z"/>
		<g>
			<g>
				<polygon class="st27" points="1299.4,617.4 1290.5,601.3 1271.2,655.2 1282.6,667.4 				"/>
				<polygon class="st2" points="1252.8,626.8 1234.9,678.1 1282.6,667.4 1299.4,617.4 				"/>
				<polygon class="st19" points="1235.8,675.5 1235,674 1252,625.5 1252.8,626.8 				"/>
				<polygon class="st17" points="1252,625.5 1297.2,616.7 1299.4,617.4 1252.8,626.8 				"/>
			</g>
			<polygon class="st19" points="1299.4,617.4 1289.8,602 1283.6,619.3 1297.2,616.7 			"/>
		</g>
		<path class="st26" d="M1266.6,634.2c-1.6-0.3-4.9-1.6-8.3-2.5c1-0.8,2.1-1.7,2.4-2.7c0.6-1.9,1-2.5-1-1.9c-2,0.6-9,3.8-9,3.8
			s0,0,0,0c-4,1.2-7.7,6.8-7.7,6.8s-49.3,17.3-55.3,17.6c-9.2,0.5-70.3-22-70.3-22c-14.4,3.2-11.2,20.9-6.2,24.1
			c5,3.1,48.9,19.1,75,19.4c13.2,0.2,61.2-30.7,61.2-30.7s5.6-2.6,10-1.8c4.4,0.8,14.6,0,16.8-3.6
			C1276.6,637.1,1269.2,634.7,1266.6,634.2z"/>
		<path class="st28" d="M1149,644.4c0,0-5.5,17.3-24.2,21.2c0,0-31-9.6-15.6-30.7C1109.2,635,1124.5,623.7,1149,644.4z"/>
		<path class="st24" d="M1298.6,635.5L1298.6,635.5c0-0.5,0-0.9-0.2-1.4c0,0-4.4-7-5.9-7.3c-4.4-0.9-4.4,4.9-3.5,8.7
			c0.7,2.6,2.3,5.1,3.7,6.5l0,0l-0.2,5.5C1300.1,643.4,1298.6,635.5,1298.6,635.5z"/>
	</g>
	<g>
		<path class="st21" d="M908.1,720.8c0,0-7.9,4.8-10.5,12.7c-0.5,1.4-0.8,2.9-0.8,4.4c-0.4,10.5,0,34.2,0,34.2l-23.2-11.9
			l-23.1,11.9v-32.2c0-6.1,2-12,5.7-15.9c1.8-1.9,4-3.3,6.4-3.3H908.1z"/>
		<path class="st32" d="M908.1,720.8c0,0-7.9,4.8-10.5,12.7l-46.5,0.5c0,0,1.8-11.3,11.4-13.2H908.1z"/>
	</g>
	<g>
		<path class="st22" d="M451.3,567.3c0,0,4.9,21.4,19.3,21.4c12.3,0,29.2-27.8,29.2-27.8L451.3,567.3z"/>
		<path class="st6" d="M615.4,885.1l-8.2,4.4c0,0-44.6-47.3-55.3-92.6c-1.9-8.1-2.7-16.1-1.9-23.7c0,0-0.6-2.1-1.8-5.7
			c0-0.2-0.1-0.3-0.2-0.5c-0.5-1.6-1.1-3.5-1.8-5.6c-2.2-6.9-5.1-16.2-8.5-26.9c-7.8-24.6-25.5-80-33.1-103l54.5-19.7
			c0,0,6.2,14.1,15.1,52.5c1.4,5,2.7,10.5,4,16.6c1.5,6.8,2.8,14.3,3.9,22.4c1.9,13.7,3.2,29.1,3.3,45.9c0,6.9-0.1,14-0.5,21.3
			c-0.3,5.4,0.5,12.6,2,20.7C593.9,828.5,615.4,885.1,615.4,885.1z"/>
		<path class="st5" d="M645.2,906h-44.1c0,0-1.6-7,1.2-11.8c2.6-4.2,1.6-6.6-0.3-10.1c2,0.8,4.6,1.6,7.4,1.4
			c2.2-0.1,4.5-1.1,6.6-2.3c1.9,2.2,10,11.4,12.6,13.2C631.5,898.4,644.4,897.6,645.2,906z"/>
		<path class="st2" d="M582.3,703.2L548.1,767c-0.5-1.6-1.1-3.5-1.8-5.6c-2.2-6.9-5.1-16.2-8.5-26.9c-7.8-24.6-25.5-80-33.1-103
			l54.5-19.7c0,0,6.2,14.1,15.1,52.5c1.4,5,2.7,10.5,4,16.6C579.8,687.6,581.2,695.1,582.3,703.2z"/>
		<path class="st5" d="M503.9,892.2c0,0-3,7.5-0.2,13.8h24c0,0,0.5-5.7-8.2-12.3C512.9,888.7,503.9,892.2,503.9,892.2z"/>
		<path class="st5" d="M529.9,405c0-1.2,0.6-14.1,20.2-15.2c0,0-9.6,1.4-11.2,5.6c0,0,6.4-5.4,11.8-3.8c5.4,1.6,8.7,10.8,8.8,13.9
			c0.1,3.1-2.6,13.1-6,14c-1.3,0.4-2.8,0.3-4.1,0.1c0.9,1.4,1.9,2.9,2.7,4.6c8.2,15.8,1.1,34.5-5.5,32.9c-4.3-1-6.9,6.4-6.9,6.4
			l-41-35.3C498.9,428.2,513.2,396.6,529.9,405z"/>
		<path class="st26" d="M504.2,512.2c4.5,3.2,10.2,5.8,17.4,7.4c26.8,6.2,37.1-16.5,41-32c-3.7-2.1-7.1-2.6-9.1-2.8
			c-1.9-0.2-4-0.4-5.7-0.5c-3-2.3-7.5-11.8-8.5-26.4l-1.3,0.3l-21.1,5.8c0,0,1,6.7,1.4,13.1c0.4,5,0.4,9.7-0.5,10.9
			c-1.7,0.4-2.6,0.6-2.6,0.6s0,0,0,0C514.9,489,508.7,499.1,504.2,512.2z"/>
		<path class="st24" d="M516.9,464c0,0,1,6.7,1.4,13.1c12-1.2,17.5-12.6,19.7-18.9L516.9,464z"/>
		<path class="st26" d="M516.6,474.1c0,0,27.6-7.1,22.9-24.2c-4.7-17.1-4.3-29.5-22.1-25.7c-17.8,3.8-19.4,11.3-19.3,17.4
			C498.4,447.6,509.3,475.5,516.6,474.1z"/>
		<path class="st5" d="M496.4,431.8c2.8-6.3,6.3-6.1,8.6-5c12.7-12.4,25.8-2.8,25.8-2.8c5.2,11.8,16,16.4,16,16.4s-4.2,4.5-16.5,4.7
			c-3.8,0.1-7.6-1.6-11.1-3.9c6.8,6.5,14.7,10.4,14.7,10.4c-15.5-2.6-26.3-20.2-27.4-22.1c-1.3,2-3.7,6.1-3.8,9.6
			c-0.2,4.7,1.7,13.9-1,14.3C501.6,453.3,492.2,441.2,496.4,431.8z"/>
		<path class="st33" d="M508.7,487.1c0,0,46.3-11.2,66.5,5.4l-10.1,140.4L474.5,611c0,0,2.5-8.9,19.9-32.5
			C511.8,554.9,504.2,520.2,508.7,487.1z"/>
		<path class="st6" d="M535.7,617.2c0,0-0.1,0.5-0.1,1.4c0,0.4-0.1,0.9-0.2,1.4c-0.4,3.6-1.1,10.6-2.1,19.7
			c-2.5,23.8-6.4,62.1-9,92.2c-2.1,23.6-3.4,42.3-2.7,45.3c2.1,9,0,116.9,0,116.9c-7.7,3.7-19.4,0-19.4,0s-20.5-97.2-17.6-110.7
			c2.9-13.5-1.9-25-1.9-25c-15.9-74.2-14.2-115.3-11-135c0.9-5.7,2-9.6,2.7-12c0.6-2,1.1-3,1.1-3C510.6,599,535.7,617.2,535.7,617.2
			z"/>
		<path class="st20" d="M581.4,532.5c-2.2,16.9-11.2,37.6-14.4,48.7c0,0,5.3,38.6,0.2,49.2c-0.6,1.2-1.3,2.1-2.2,2.4
			c-18.9,8.2-92.5,0.2-95.6-23.5c-1.1-8.6,28-39,29.7-42.6c0.7-1.5,1.5-6.5-2-16.7c-4.8,14.9-31.6,10.6-31.6,10.6
			c3.1-5.4,11-42.5,19.7-59.3c6.6-12.6,24.1-14.4,24.1-14.4s7.3,11.6,24.9,9.9c17.6-1.6,20.9-12.4,20.9-12.4s15.6,2.1,20.5,6
			C576.6,491.1,584.4,510.4,581.4,532.5z"/>
		<path class="st9" d="M567,581.2c0,0,5.3,38.6,0.2,49.2c-13.8-6.9-31.7-21.8-26.2-45.1c7.9-33.9,40.4-52.8,40.4-52.8
			C579.2,549.4,570.2,570.1,567,581.2z"/>
		<g>
			<polygon class="st6" points="509.6,535.5 541.1,586.1 487.5,586.1 457.4,536.6 			"/>
			<polygon class="st19" points="539.5,583.6 540,581.8 510.2,533.9 509.6,535.5 			"/>
			<polygon class="st17" points="510.2,533.9 459.6,535.4 457.4,536.6 509.6,535.5 			"/>
			<polygon class="st2" points="457.4,536.6 429,521.3 462.1,573.2 487.5,586.1 			"/>
		</g>
		<path class="st26" d="M607.5,572.1c-3,1.4-10.8,10.6-13.6,11.5c-12.5,4.2-65.8-7-65.8-7l1.6-9.3c0,0,52.3,1.4,58-0.1
			c1.1-0.3,6.7-9.1,8.9-10.4L607.5,572.1z"/>
		<path class="st26" d="M529.8,567.3c0,0-6.3-5.1-10.6-4c-4.3,1.2-10.5,6.5-12.9,7.8c-2.3,1.3-8.7,5.8-5.4,8.6
			c3.2,2.8,13.2,0.4,17.1-1.7c4-2.1,10.1-1.4,10.1-1.4L529.8,567.3z"/>
		<path class="st26" d="M520.4,563.2c0,0-7.7-0.9-9.8-0.9c-2.1,0-1.5,0.5-0.4,2.1c1.2,1.6,5.1,2.2,5.3,2.8
			C515.8,567.8,520.4,563.2,520.4,563.2z"/>
		<path class="st20" d="M555.3,484.5c0,0,22.7,2.7,29,12.4c7.9,12.3,26.6,61.4,26,73.8c0,0-13.6,23.2-60.5,19.5c0,0-4.9-17.2,5-22.9
			c0,0,24-4.3,26.8-6.7l-8-33.4L555.3,484.5z"/>
		<path class="st26" d="M464.7,555.1c-0.7-2.9-6.9-1.1-9.1,0.6c-0.5,0.4-1.1,1.1-1.6,1.9c-0.1-0.5-0.1-0.9-0.2-1.3
			c-0.1-1.3-1.7-3.8-2.1-2c-0.4,1.8-1,9.4-1,9.4c-0.1,6.1,3.8,8.6,6.4,6.6C459.6,568.4,465.4,558,464.7,555.1z"/>
	</g>
</g>
</svg>
