<?xml version="1.0" encoding="utf-8"?>
<!-- Generator: Adobe Illustrator 24.2.0, SVG Export Plug-In . SVG Version: 6.00 Build 0)  -->
<svg version="1.1" id="Layer_1" xmlns="http://www.w3.org/2000/svg" xmlns:xlink="http://www.w3.org/1999/xlink" x="0px" y="0px"
	 viewBox="0 0 270 244" style="enable-background:new 0 0 270 244;" xml:space="preserve">
<style type="text/css">
	.st0{fill:#2978A0;}
	.st1{fill:#FFFFFF;}
</style>
<rect class="st0" width="270" height="244"/>
<path class="st1" d="M131.7,110.9c-13.8,0-27.6,0-41.3,0c-0.7,0-1.4-0.1-2.1,0s-1.4,0.4-2.1,0.7c0.3,0.6,0.5,1.4,1,1.9
	c9.6,9.6,19.2,19.2,28.8,28.8c0.4,0.4,0.7,0.7,1.1,1.1c2.1,2.2,2.1,3.7,0,5.9c-3.1,3.2-6.3,6.4-9.5,9.5c-4.3,4.3-8.7,8.7-13,13
	c-2.7,2.7-4.4,2.7-7,0c-22.3-22.3-44.7-44.6-67-67c-3.7-3.7-7.3-7.3-11-11c-2.7-2.7-2.7-4.2-0.1-6.9C35.6,60.7,61.8,34.7,87.8,8.5
	c2.4-2.4,4.2-2.4,6.6,0c7.3,7.3,14.7,14.6,22,21.9c0.2,0.2,0.4,0.5,0.6,0.7c2.2,2.3,2.2,3.8,0,6c-7,7.1-14.1,14.1-21.1,21.2
	c-2.9,2.9-5.8,5.8-8.7,8.7c-0.4,0.4-0.6,1.1-0.9,1.7c0.7,0.3,1.3,0.7,2,0.8c7.1,0.1,14.2,0,21.2,0c20,0,40.1,0,60.1,0
	c5,0,10-0.2,15,0.5c5.6,0.8,11.3,2.1,16.7,3.8c9.8,2.9,18.5,7.9,26.4,14.4c11.5,9.4,20,21,25.3,34.8c4,10.2,6,20.8,5.6,31.7
	c-1.1,28.9-13.6,51.7-37.4,68.1c-8.3,5.7-17.5,9.5-27.4,11.8c-6.8,1.6-13.7,2-20.7,2.1c-3.7,0-4.6-0.8-4.6-4.6c0-10.6,0-21.1,0-31.7
	c0-4.1,0.8-5,4.9-4.9c10.4,0,19.9-2.7,28.1-9.4c7.1-5.8,12-13.2,14.4-22.1c1.8-6.5,2-13,0.6-19.5c-2.8-12.2-9.6-21.7-20.5-28.1
	c-7.1-4.2-14.8-5.6-22.9-5.6C159.3,110.9,145.5,110.9,131.7,110.9z M128.1,104.6c15,0,30.1,0.1,45.1,0c8.1-0.1,15.8,1.4,23.1,5
	c13.4,6.7,22,17.4,25.8,31.7c2.2,8.6,2,17.2-0.6,25.8c-2.4,8.1-6.7,15.1-12.7,20.9c-8.9,8.6-19.7,13-32,13.7
	c-1.6,0.1-2.3,0.7-2.2,2.3c0,8,0,16.1,0,24.1c0,1.7,0.8,2.5,2.4,2.3c3.6-0.3,7.3-0.4,10.9-1.1c10.1-1.8,19.6-5.3,28.2-10.9
	c21.1-13.7,33-33.3,35.8-58.2c1.1-9.5,0.1-18.9-2.6-28.1c-2.8-9.8-7.3-18.8-13.6-26.8c-11-14-25.4-23.1-42.6-27.5
	c-6.7-1.7-13.7-2.3-20.7-2.3c-30.9,0.1-61.8,0-92.7,0c-1,0-2,0-3-0.1c-1.7-0.2-2.8-1.2-2.6-2.9c0.2-1.3,1-2.7,2-3.7
	C87,57.7,98,46.8,108.9,35.8c2-2,2-2.2,0.1-4.1c-5.2-5.2-10.4-10.4-15.5-15.6c-2.4-2.4-2.4-2.4-4.9,0C64.8,39.9,41,63.7,17.2,87.6
	c-2,2-2,2.3,0,4.4C41.1,115.8,65,139.8,89,163.8c1.9,1.9,2.2,1.9,4.1,0c5.3-5.3,10.5-10.6,15.8-15.8c2-2,2-2.2-0.1-4.3
	c-7.8-7.8-15.6-15.6-23.5-23.5c-3.4-3.4-6.9-6.9-10.3-10.3c-1.1-1.1-1.3-2.5-0.8-3.8c0.5-1.4,1.8-1.8,3.2-1.8c0.8,0,1.5,0,2.3,0
	C95.9,104.6,112,104.6,128.1,104.6z"/>
<path class="st1" d="M133.2,216.2c0-5.4,0-10.7,0-16.1c0-3.2,1.2-4.5,4.5-4.5c5.1,0,10.1-0.1,15.2,0c3.2,0,4.3,1.3,4.3,4.4
	c0,10.8,0,21.6,0,32.4c0,3.3-1,4.3-4.2,4.3c-5.2,0.1-10.4,0.1-15.5,0c-3.2,0-4.2-1.2-4.3-4.5C133.2,226.9,133.2,221.6,133.2,216.2z
	 M150.7,216.3c0-4,0-8.1,0-12.1c0-1.7-0.7-2.4-2.4-2.3c-2.1,0.1-4.3,0.1-6.4,0c-1.6,0-2.1,0.6-2.1,2.2c0,8.1,0,16.2,0,24.3
	c0,1.7,0.6,2.5,2.3,2.4c2-0.1,4-0.1,6.1,0c1.9,0.1,2.6-0.8,2.5-2.6C150.6,224.2,150.7,220.3,150.7,216.3z"/>
<path class="st1" d="M28.4,216.2c0-5.5,0-11,0-16.5c0-2.9,1.1-4,4-4.1c5.2-0.1,10.5-0.1,15.7,0c2.9,0,4.1,1.4,4.1,4.3
	c0,10.9,0,21.9,0,32.8c0,2.9-1.2,4.1-4,4.1c-5.3,0.1-10.6,0.1-15.9,0c-3,0-3.9-1-3.9-4.1C28.4,227.2,28.4,221.7,28.4,216.2z
	 M45.8,216.2c0-4,0-8.1,0-12.1c0-1.6-0.6-2.3-2.3-2.2c-2.1,0.1-4.3,0.1-6.4,0c-1.7-0.1-2.4,0.7-2.4,2.4c0,3.2,0,6.4,0,9.7
	c0,4.6,0,9.2,0,13.8c0,2.5,0.4,2.9,2.8,2.9c1.9,0,3.8-0.1,5.7,0c1.9,0.1,2.6-0.7,2.6-2.5C45.7,224.2,45.8,220.2,45.8,216.2z"/>
<path class="st1" d="M87.1,216.2c0,5.5,0,11,0,16.5c0,3.1-0.9,4-3.9,4c-5.3,0.1-10.6,0.1-15.9,0c-2.7,0-3.9-1.1-3.9-3.8
	c-0.1-11.1-0.1-22.3,0-33.4c0-2.7,1.2-3.9,4-3.9c5.2-0.1,10.5-0.1,15.7,0c2.9,0,4,1.2,4,4.1C87.1,205.2,87.1,210.7,87.1,216.2z
	 M69.7,216.2c0,4,0,8.1,0,12.1c0,1.7,0.6,2.4,2.4,2.4c2.1-0.1,4.3,0,6.4,0c1.6,0,2.4-0.7,2.4-2.3c0-8.1,0-16.3,0-24.4
	c0-1.5-0.8-2.1-2.3-2.1c-2.1,0-4.2,0-6.2,0c-2.4,0-2.6,0.2-2.6,2.6C69.7,208.4,69.7,212.3,69.7,216.2z"/>
<path class="st1" d="M98.5,216.2c0-5.5,0-11,0-16.5c0-3.1,1-4.1,4-4.2c5.1-0.1,10.2-0.1,15.3,0c3.1,0,4.2,1.1,4.2,4.3
	c0.1,4.1,0,8.2,0,12.3c0,6.4,0,12.8,0,19.1c0,0.9-0.1,1.9-0.2,2.8c-0.3,1.6-1.2,2.5-2.8,2.5c-5.9,0-11.7,0.1-17.6,0
	c-2.2,0-2.9-1-3-3.4C98.4,227.6,98.5,221.9,98.5,216.2L98.5,216.2z M115.9,216.2C115.9,216.2,115.8,216.2,115.9,216.2
	c0-4,0-8.1,0-12.1c0-1.5-0.6-2.2-2.1-2.2c-2.4,0-4.8,0-7.2,0c-1.3,0-2,0.7-2,2c0,8.2,0,16.4,0,24.6c0,1.5,0.8,2.2,2.3,2.1
	c2.1,0,4.3-0.1,6.4,0c1.9,0.1,2.6-0.7,2.6-2.6C115.8,224.1,115.9,220.2,115.9,216.2z"/>
<path class="st1" d="M48.8,104.2c1,0.8,1.8,1.3,2.4,1.9c7.2,7.2,14.4,14.4,21.6,21.5c4.8,4.8,9.5,9.6,14.3,14.3
	c0.2,0.2,0.4,0.3,0.5,0.5c0.6,0.9,2,1.7,0.7,2.9c-1.2,1.1-2-0.1-2.7-0.8c-12.3-12.2-24.5-24.5-36.8-36.8c-0.5-0.5-0.9-1.1-1-1.7
	C47.8,105.6,48.4,105.1,48.8,104.2z"/>
<path class="st1" d="M69.8,55.1c-0.4-1-0.8-1.6-0.7-2.1c0.1-0.6,0.6-1.2,1.1-1.7c5.1-5.1,10.1-10.2,15.2-15.2c0.4-0.4,0.9-1,1.5-1.2
	c0.4-0.1,1.2,0,1.5,0.3s0.4,1.1,0.2,1.5c-0.2,0.6-0.7,1-1.2,1.4c-5,5-10,10-15,15C71.8,53.7,71,54.2,69.8,55.1z"/>
<path class="st1" d="M57.5,67.5c-0.4,0.5-0.6,1-0.9,1.3c-2.6,2.6-5.1,5.2-7.7,7.8c0,0-0.1,0.1-0.2,0.1c-0.8,0.1-1.5,0.2-2.3,0.3
	c0.1-0.8-0.1-1.8,0.4-2.2c2-2.2,4.2-4.4,6.3-6.5c0.7-0.7,1.3-1.4,2.1-1.9c0.3-0.2,1-0.2,1.4-0.1C56.9,66.6,57.2,67.1,57.5,67.5z"/>
<path class="st1" d="M32.8,91.4c-0.2-0.5-0.8-1.5-0.6-1.8c1.8-2,3.7-3.9,5.7-5.7c0.2-0.2,1,0,1.3,0.2s0.5,1,0.4,1.1
	c-1.9,2-3.9,4-5.9,6C33.6,91.4,33.5,91.3,32.8,91.4z"/>
</svg>
