<?xml version="1.0" encoding="utf-8"?>
<!-- Generator: Adobe Illustrator 24.2.0, SVG Export Plug-In . SVG Version: 6.00 Build 0)  -->
<svg version="1.1" id="Layer_1" xmlns="http://www.w3.org/2000/svg" xmlns:xlink="http://www.w3.org/1999/xlink" x="0px" y="0px"
	 viewBox="0 0 428 438.8" style="enable-background:new 0 0 428 438.8;" xml:space="preserve">
<style type="text/css">
	.st0{fill:#2978A0;}
	.st1{fill:#FFFFFF;}
</style>
<rect class="st0" width="428" height="438.8"/>
<g>
	<path class="st1" d="M49.6,107c1.6-39.1,19.3-68.9,53.2-88.4c16.4-9.4,34.6-13.8,53.6-12.4c38,2.7,66.8,20.8,85.2,54.1
		c10.5,19,14.5,39.6,10.8,61.3c-2.2,13-7.1,25.3-12.9,37.1c-16.5,33.6-38,64-60.8,93.5c-6.9,8.9-14.1,17.7-21.3,26.4
		c-4.1,4.9-7.6,4.9-11.7,0.1c-27.4-32.8-52.9-67-74-104.3c-7.2-12.6-13.5-25.7-17.8-39.7C51.3,125.7,49.2,116.6,49.6,107z
		 M150.6,17.7c-4,0.5-9,1.1-14,1.7c-10.2,1.3-19.7,4.8-28.6,9.8C86.6,41.4,72.1,59.2,65.1,83c-4.9,16.6-4.7,33.1,1.1,49.4
		c6,16.8,14.1,32.5,23.2,47.8c17.5,29.4,37.7,56.9,59.5,83.3c2.6,3.1,3.1,3.2,5.4,0.2c9.3-11.9,18.8-23.7,27.8-35.9
		c20.4-27.7,39.2-56.4,52.3-88.5c4-9.9,7.4-20.1,7.4-30.8c0.1-15.1-3.2-29.7-10.7-42.9C213.7,34.9,186.9,19.4,150.6,17.7z"/>
	<path class="st1" d="M427.9,397.1c0.2,23.1-19.2,42.1-42.3,41.7c-23.3-0.4-41.5-18.5-41.5-42.2c0-23.6,19.6-42.2,42.7-41.7
		C409.9,355.3,428.1,373.8,427.9,397.1z M385.9,426.8c16.7,0,30.1-13.3,30.2-30.1c0-16.6-13.2-29.9-29.8-30
		c-16.8,0-30.2,13.2-30.2,30C355.9,413.2,369.5,426.8,385.9,426.8z"/>
	<path class="st1" d="M386.1,89.9C363.2,90.3,343.9,71.4,344,48c0.1-23.9,18.9-42.1,42.5-42c23,0.1,41.5,19.1,41.5,42.2
		C428,71.2,408.5,90.5,386.1,89.9z M386.1,18c-16.6,0-30.2,13.5-30.2,30.1s13.2,29.8,30,29.9s30.2-13.2,30.1-30
		C416,31.4,402.7,18.1,386.1,18z"/>
	<path class="st1" d="M157.6,402.5c-3.2,0-6-2.9-5.9-6c0.1-2.9,3.1-5.7,6-5.6c3,0,5.8,2.7,5.8,5.7C163.6,400,161,402.5,157.6,402.5z
		"/>
	<path class="st1" d="M385.9,138.2c-3.1-0.1-5.8-3.1-5.7-6.2c0.1-3.2,2.9-5.8,6.1-5.6c2.8,0.1,5.7,3.1,5.6,5.9
		C392,135.2,388.7,138.3,385.9,138.2z"/>
	<path class="st1" d="M61.5,402.5c-3.2,0-6-2.8-6-5.9c0.1-2.8,3-5.7,5.9-5.7s5.8,2.8,5.9,5.7C67.5,399.8,64.8,402.5,61.5,402.5z"/>
	<path class="st1" d="M37.4,402.5c-3.3,0-5.9-2.7-5.8-6c0.1-3,3-5.7,5.9-5.6c3.1,0.1,5.6,2.6,5.6,5.8
		C43.2,400.3,41,402.5,37.4,402.5z"/>
	<path class="st1" d="M259.6,396.9c-0.1,3.4-2.7,5.8-6.1,5.6c-3-0.1-5.7-3-5.6-5.9c0.1-2.8,3-5.7,5.9-5.7
		C256.9,390.8,259.7,393.7,259.6,396.9z"/>
	<path class="st1" d="M386.1,210.2c-3.4,0-5.9-2.6-5.8-6c0-3,2.8-5.7,5.8-5.8c2.9,0,6.1,3.2,6,6
		C391.9,207.5,389.1,210.2,386.1,210.2z"/>
	<path class="st1" d="M386.2,234.4c-3,0.1-5.9-2.8-5.9-5.9c0-3.2,2.7-5.9,5.9-5.9c2.8,0,5.8,2.8,5.9,5.7
		C392.1,231,389,234.3,386.2,234.4z"/>
	<path class="st1" d="M385.9,246.8c3.2-0.1,6.1,2.7,6.1,5.8c0,2.8-3,5.7-5.8,5.8c-3.1,0.1-5.8-2.5-5.9-5.6
		C380.1,249.2,382.4,246.8,385.9,246.8z"/>
	<path class="st1" d="M283.8,396.8c0,3.1-3,5.8-6.2,5.7c-3.2-0.1-5.7-2.6-5.7-5.8c0-3.1,3-6,6.1-5.8
		C281,391,283.9,393.9,283.8,396.8z"/>
	<path class="st1" d="M392,276.6c-0.1,3.2-2.9,5.7-6.2,5.6c-3.4-0.1-5.5-2.4-5.5-5.7c0-3.4,2.6-5.7,6-5.6
		C389.4,270.9,392,273.7,392,276.6z"/>
	<path class="st1" d="M392,108.1c0.1,3-2.9,6-5.9,6c-3.2,0-5.7-2.4-5.8-5.5c-0.1-3.1,2.5-6.1,5.6-6.3
		C388.6,102.1,391.9,105.2,392,108.1z"/>
	<path class="st1" d="M91.5,396.8c0,3.1-3,5.8-6.1,5.7c-3.3-0.1-5.6-2.5-5.6-5.8c0-3.2,2.8-6,6-5.9C88.5,391,91.5,394,91.5,396.8z"
		/>
	<path class="st1" d="M386.2,186c-3.5,0-5.9-2.3-5.9-5.7c0-3.3,2.3-5.6,5.6-5.7c3.2-0.1,6.1,2.6,6.1,5.7
		C391.9,183.4,389.3,186,386.2,186z"/>
	<path class="st1" d="M205.8,390.9c3,0,5.6,2.7,5.7,5.8c0,3.4-2.4,5.9-5.8,5.9c-3.5,0-5.7-2.3-5.6-6
		C200.1,393.4,202.7,390.9,205.8,390.9z"/>
	<path class="st1" d="M19.1,324.5c0.1,3.3-2.5,6.1-5.7,6.1c-3.1,0-5.6-2.6-5.6-5.8c-0.1-3.4,2.4-6.1,5.7-6
		C16.6,318.7,19,321.2,19.1,324.5z"/>
	<path class="st1" d="M181.6,390.9c2.8-0.1,5.9,2.7,6,5.6c0.2,3.1-2.7,6-5.8,6.1c-3.3,0-5.8-2.3-5.9-5.5
		C175.7,393.9,178.4,391,181.6,390.9z"/>
	<path class="st1" d="M13.6,390.9c3.2,0.1,5.6,2.7,5.5,5.9c-0.1,3.6-2.4,5.8-6,5.7c-3.3-0.1-5.4-2.5-5.3-6
		C7.8,393.3,10.4,390.8,13.6,390.9z"/>
	<path class="st1" d="M91.5,276.5c0,3-2.6,5.7-5.7,5.7c-3.6,0.1-6-2.2-6-5.6s2.4-5.8,5.9-5.8C88.7,270.9,91.4,273.5,91.5,276.5z"/>
	<path class="st1" d="M361.8,282.2c-3.2-0.1-5.8-2.6-5.8-5.7s2.8-5.8,6.1-5.7c3.3,0.1,5.7,2.5,5.7,5.7
		C367.9,279.8,365.3,282.3,361.8,282.2z"/>
	<path class="st1" d="M67.4,276.6c-0.1,3.3-2.7,5.7-6.1,5.6c-3.2-0.1-5.7-2.7-5.7-5.8c0.1-3.2,2.9-5.7,6.2-5.6
		C65.1,271,67.4,273.4,67.4,276.6z"/>
	<path class="st1" d="M386.2,150.6c3.1,0,5.8,2.7,5.8,5.7s-3.1,5.9-6.1,5.8c-3.2-0.1-5.6-2.6-5.6-5.8
		C380.2,152.8,382.6,150.5,386.2,150.6z"/>
	<path class="st1" d="M271.7,276.6c-0.1,3.3-2.7,5.7-6.2,5.5c-3.2-0.1-5.7-2.7-5.6-5.8c0.1-3.2,2.9-5.7,6.2-5.6
		C269.4,271,271.8,273.5,271.7,276.6z"/>
	<path class="st1" d="M103.9,396.6c0-3.2,2.6-5.8,5.7-5.7c3.1,0.1,5.6,2.7,5.6,5.8c0,3.5-2.5,5.8-6,5.7
		C105.9,402.4,103.9,400.2,103.9,396.6z"/>
	<path class="st1" d="M139.3,397.1c-0.2,3.5-2.6,5.6-6.1,5.4c-3.1-0.2-5.5-2.9-5.3-6c0.2-3,2.9-5.7,5.9-5.6
		C137,391,139.5,393.7,139.3,397.1z"/>
	<path class="st1" d="M235.4,396.9c-0.1,3.5-2.2,5.6-5.7,5.6c-3.4,0-5.8-2.6-5.7-6c0.1-3.1,2.9-5.7,5.9-5.6
		C233.2,391.1,235.5,393.6,235.4,396.9z"/>
	<path class="st1" d="M302,390.9c3,0.1,5.6,2.8,5.6,5.8c0,3.4-2.6,5.8-5.9,5.8c-3.5-0.1-5.6-2.4-5.5-6.1
		C296.3,393.3,298.9,390.8,302,390.9z"/>
	<path class="st1" d="M13.1,306.3c-3.4-0.1-5.6-2.7-5.4-6.2c0.2-3.1,3-5.6,5.9-5.5c3.1,0.2,5.5,2.8,5.4,6
		C19,304.2,16.6,306.5,13.1,306.3z"/>
	<path class="st1" d="M13.4,342.9c3.4,0,5.6,2.1,5.7,5.6c0.1,3.2-2.3,5.9-5.4,6c-3.2,0.1-5.9-2.6-5.9-5.9
		C7.8,345.1,10,342.9,13.4,342.9z"/>
	<path class="st1" d="M43.2,276.5c0,3.5-2.1,5.6-5.6,5.6c-3.3,0.1-5.8-2.3-5.9-5.5c-0.1-3.3,2.5-5.9,5.9-5.9
		C41,270.9,43.2,273.1,43.2,276.5z"/>
	<path class="st1" d="M325.9,402.5c-3.3,0-5.6-2.3-5.7-5.7c-0.1-3.2,2.4-5.8,5.6-5.9c3.3-0.1,5.9,2.6,5.8,6
		C331.5,400.4,329.4,402.5,325.9,402.5z"/>
	<path class="st1" d="M284.1,276.1c0.2-3.2,2.7-5.4,6-5.3c3.2,0.1,5.7,2.8,5.6,5.9c-0.1,3.3-2.8,5.6-6.3,5.4
		S283.9,279.7,284.1,276.1z"/>
	<path class="st1" d="M241.9,270.8c3.5,0.1,5.8,2.5,5.6,6c-0.1,3.3-2.5,5.4-6,5.3c-3.2-0.1-5.7-2.7-5.6-5.8
		C236.1,273.1,238.7,270.8,241.9,270.8z"/>
	<path class="st1" d="M193.6,270.8c3.2-0.1,5.8,2.3,6,5.5c0.1,3.1-2.4,5.7-5.6,5.8c-3.6,0.1-6-2.1-6-5.6
		C188,273.2,190.2,270.9,193.6,270.8z"/>
	<path class="st1" d="M343.7,276.5c0,3.5-2.1,5.6-5.6,5.7c-3.3,0.1-5.8-2.2-6-5.4c-0.1-3.3,2.5-5.9,5.9-5.9S343.7,273.1,343.7,276.5
		z"/>
	<path class="st1" d="M13.5,270.8c3.3,0.1,5.5,2.3,5.5,5.7c0,3.5-2.2,5.6-5.6,5.6c-3.6,0-5.8-2.2-5.7-5.9
		C7.9,272.9,10.1,270.8,13.5,270.8z"/>
	<path class="st1" d="M313.7,282.2c-3.5-0.1-5.5-2.2-5.5-5.7s2.4-5.8,6-5.6c3.3,0.2,5.4,2.5,5.3,5.9
		C319.4,280.2,317.2,282.2,313.7,282.2z"/>
	<path class="st1" d="M19,373.1c-0.2,3.3-2.5,5.4-6,5.3c-3.5-0.2-5.6-2.6-5.3-6.2c0.2-3.3,2.6-5.3,6.1-5.1
		C17.2,367.3,19.2,369.6,19,373.1z"/>
	<path class="st1" d="M109.7,270.9c3.3,0.1,5.6,2.4,5.6,5.7c0,3.5-2.5,5.7-6,5.6s-5.4-2.3-5.3-5.9
		C104,272.9,106.3,270.8,109.7,270.9z"/>
	<path class="st1" d="M223.4,276.7c-0.1,3.4-2.3,5.5-5.7,5.5c-3.6,0-5.7-2.3-5.6-5.9c0.1-3.4,2.5-5.5,5.9-5.4
		C221.3,271,223.5,273.3,223.4,276.7z"/>
	<path class="st1" d="M79.7,108.1c0-29.6,17.7-55.9,45.3-66.9c14.5-5.8,29.6-6.8,44.8-2.6c2.9,0.8,5.8,1.6,8.6,2.6
		c1.9,0.7,3.7,1.9,2.7,4.4c-1.1,2.6-3.1,1.9-5,1.1c-33.6-13.2-71.2,2.2-85.4,35.7c-14,33.1,0.8,71.1,33.7,85.9
		c33.7,15.1,72.4,0.5,87.4-33.4c3.1-6.9,4-14.8,5.7-22.4c0.5-2,0.4-4.1,3.2-4c2.9,0.1,2.7,2.4,2.6,4.4c-2.4,28-16.4,48.3-41.5,60.5
		c-14.7,7.2-30.4,8.9-46.3,4.9c-22.2-5.5-38.6-18.5-48.8-39.2C81.9,129.5,79.5,119.1,79.7,108.1z"/>
	<path class="st1" d="M211.5,69.1c-0.6,0.9-1.1,2.2-1.9,2.6c-0.7,0.3-2-0.1-2.8-0.6c-0.8-0.4-1.2-1.4-1.9-2
		c-4.9-4.8-9.8-9.7-14.7-14.5c-0.3-0.3-0.9-0.6-1-0.9c-0.3-1.4-0.4-2.9-0.7-4.3c1.3-0.1,3.1-0.8,3.9-0.2c3,2,6,4.3,8.6,6.9
		c3.1,3,5.9,6.4,8.7,9.8C210.5,66.7,210.9,67.8,211.5,69.1z"/>
	<path class="st1" d="M222.3,92.9c-1.1,1.1-2,2.8-2.9,2.8c-1.1,0-2.7-1.3-3.2-2.4c-1.4-3.3-2.5-6.7-3.3-10.1
		c-0.3-1.3,0.3-3.6,1.3-4.3c1.9-1.3,3.4,0.2,4.1,2.1C219.6,84.9,220.9,88.7,222.3,92.9z"/>
</g>
</svg>
